<svg width="500" height="500" viewBox="0 0 500 500" fill="none" xmlns="http://www.w3.org/2000/svg">
<path d="M383.97 404.54H427.66V390.63H383.97V404.54Z" fill="#EBEBEB"/>
<path d="M333.17 176.54H376.86V162.63H333.17V176.54Z" fill="#EBEBEB"/>
<path d="M408.35 422.08C415.61 421.98 434.19 421.73 441.19 421.66H452.04L451.58 422.12V408.21L452.08 408.71C444.82 408.71 426.32 408.64 419.31 408.56L408.39 408.45L408.63 408.21L408.39 422.12L408.35 422.08ZM408.35 422.08L408.11 408.17V407.94H408.35C413.8 407.89 424.75 407.78 430.19 407.75L452.04 407.68H452.54V408.18L452.49 422.09V422.54H452H441C434 422.48 415.49 422.22 408.31 422.13L408.35 422.08Z" fill="#EBEBEB"/>
<path d="M223.66 316.5C230.92 316.4 249.5 316.15 256.51 316.08H267.35L266.89 316.54V302.63L267.39 303.13C260.14 303.13 241.63 303.06 234.62 302.98L223.7 302.87L223.94 302.63L223.7 316.54L223.66 316.5ZM223.66 316.5L223.42 302.59V302.35H223.66C229.11 302.3 240.06 302.19 245.51 302.16L267.35 302.09H267.85V302.59V316.5V317H267.4H256.4C249.4 316.94 230.9 316.68 223.71 316.59L223.66 316.5Z" fill="#EBEBEB"/>
<path d="M248 334C255.26 333.9 273.84 333.65 280.85 333.59L291.69 333.54L291.24 334V320.09L291.74 320.59C284.49 320.59 265.98 320.52 258.97 320.44L248 320.36L248.24 320.12L248 334ZM248 334L247.77 320.09V319.86H248C253.45 319.8 264.4 319.7 269.85 319.66L291.69 319.59H292.19V320.09V334V334.46H291.73L280.73 334.41C273.73 334.35 255.23 334.1 248.04 334H248Z" fill="#EBEBEB"/>
<path d="M272.31 316.5H316V302.59H272.31V316.5Z" fill="#EBEBEB"/>
<path d="M47.96 422.08H91.65V408.17H47.96V422.08Z" fill="#EBEBEB"/>
<path d="M72.34 58.84L116.03 58.84V44.93L72.34 44.93V58.84Z" fill="#EBEBEB"/>
<path d="M48 76.37C55.26 76.27 73.84 76.02 80.85 75.96H91.69L91.24 76.41V62.51L91.74 63.01C84.49 63.01 65.98 62.93 58.97 62.85L48 62.7L48.24 62.47L48 76.37ZM48 76.37L47.76 62.47V62.23H48C53.45 62.17 64.4 62.07 69.85 62.04L91.65 62H92.15V62.5V76.4V76.86H91.69H80.69C73.69 76.79 55.19 76.54 48 76.44V76.37Z" fill="#EBEBEB"/>
<path d="M384 58.84C391.26 58.74 409.84 58.49 416.84 58.43H427.69L427.23 58.89V44.98L427.73 45.48C420.47 45.48 401.97 45.41 394.96 45.33L384 45.17L384.23 44.93L384 58.84ZM384 58.84L383.76 44.93V44.7H384C389.45 44.64 400.39 44.54 405.84 44.5L427.69 44.43H428.19V44.93L428.14 58.84V59.3H427.69H416.69C409.69 59.24 391.18 58.99 384 58.89V58.84Z" fill="#EBEBEB"/>
<path d="M196.72 93.64H54.35V252.49H196.72V93.64Z" fill="#DBDBDB"/>
<path d="M187.35 103.02H63.73V243.19H187.35V103.02Z" fill="#EBEBEB"/>
<path d="M118.47 127.8H74.9V179.43H118.47V127.8Z" fill="white"/>
<path d="M98.26 131.32C98.26 131.631 98.1679 131.934 97.9954 132.192C97.8229 132.45 97.5777 132.652 97.2908 132.77C97.0039 132.889 96.6883 132.92 96.3837 132.86C96.0792 132.799 95.7994 132.65 95.5798 132.43C95.3603 132.211 95.2107 131.931 95.1502 131.626C95.0896 131.322 95.1207 131.006 95.2395 130.719C95.3583 130.432 95.5596 130.187 95.8178 130.015C96.0759 129.842 96.3795 129.75 96.69 129.75C96.8966 129.749 97.1013 129.788 97.2924 129.867C97.4835 129.945 97.6571 130.061 97.8031 130.207C97.9492 130.353 98.0648 130.527 98.1432 130.718C98.2216 130.909 98.2613 131.113 98.26 131.32Z" fill="#455A64"/>
<path d="M83.2 138.15C87.6 137.81 92.01 137.79 96.41 137.74C100.81 137.69 105.22 137.8 109.63 138.15C105.22 138.49 100.82 138.51 96.41 138.56C92 138.61 87.6 138.49 83.2 138.15Z" fill="#EBEBEB"/>
<path d="M83.2 142.23C87.9744 141.683 92.7956 141.683 97.57 142.23C92.7956 142.777 87.9744 142.777 83.2 142.23Z" fill="#EBEBEB"/>
<path d="M83.2 146.31C86.2511 146.019 89.315 145.882 92.38 145.9C95.445 145.882 98.5089 146.019 101.56 146.31C98.5 146.63 95.44 146.7 92.38 146.72C89.32 146.74 86.26 146.63 83.2 146.31Z" fill="#EBEBEB"/>
<path d="M83.2 150.39C87.03 150.07 90.85 149.99 94.68 149.98C98.51 149.97 102.34 150.07 106.17 150.39C102.34 150.71 98.51 150.78 94.68 150.8C90.85 150.82 87 150.71 83.2 150.39Z" fill="#EBEBEB"/>
<path d="M83.2 154.47C86.52 154.15 89.85 154.07 93.2 154.06C96.55 154.05 99.85 154.15 103.2 154.47C99.88 154.79 96.55 154.86 93.2 154.88C89.85 154.9 86.52 154.79 83.2 154.47Z" fill="#EBEBEB"/>
<path d="M83.2 158.55C87.45 158.21 91.71 158.19 95.97 158.14C100.23 158.09 104.49 158.21 108.74 158.55C104.49 158.89 100.23 158.91 95.97 158.96C91.71 159.01 87.45 158.89 83.2 158.55Z" fill="#EBEBEB"/>
<path d="M83.2 162.63C85.9405 162.344 88.6946 162.207 91.45 162.22C94.2055 162.202 96.9599 162.339 99.7 162.63C94.2136 163.177 88.6864 163.177 83.2 162.63Z" fill="#EBEBEB"/>
<path d="M83.2 166.71C87.6 166.37 92.01 166.35 96.41 166.3C100.81 166.25 105.22 166.37 109.63 166.71C105.22 167.05 100.82 167.07 96.41 167.12C92 167.17 87.6 167.05 83.2 166.71Z" fill="#EBEBEB"/>
<path d="M83.2 170.79C87.6 170.45 92.01 170.43 96.41 170.38C100.81 170.33 105.22 170.45 109.63 170.79C105.22 171.13 100.82 171.15 96.41 171.2C92 171.25 87.6 171.13 83.2 170.79Z" fill="#EBEBEB"/>
<path d="M176.67 160H125.11V221.09H176.67V160Z" fill="white"/>
<path d="M152.46 168.24C152.46 168.551 152.368 168.854 152.195 169.112C152.023 169.37 151.778 169.572 151.491 169.69C151.204 169.809 150.888 169.84 150.584 169.78C150.279 169.719 149.999 169.57 149.78 169.35C149.56 169.131 149.411 168.851 149.35 168.546C149.29 168.242 149.321 167.926 149.44 167.639C149.558 167.352 149.76 167.107 150.018 166.935C150.276 166.762 150.579 166.67 150.89 166.67C151.306 166.673 151.703 166.839 151.997 167.133C152.291 167.427 152.457 167.824 152.46 168.24Z" fill="#455A64"/>
<path d="M132.33 175.24C134.22 174.954 136.129 174.817 138.04 174.83C139.955 174.812 141.867 174.949 143.76 175.24C139.97 175.787 136.12 175.787 132.33 175.24Z" fill="#EBEBEB"/>
<path d="M132.33 179.85C134.786 179.559 137.257 179.422 139.73 179.44C142.203 179.417 144.675 179.554 147.13 179.85C144.674 180.136 142.203 180.273 139.73 180.26C137.257 180.268 134.787 180.131 132.33 179.85Z" fill="#EBEBEB"/>
<path d="M132.33 184.45C136.884 183.903 141.486 183.903 146.04 184.45C141.486 184.997 136.884 184.997 132.33 184.45Z" fill="#EBEBEB"/>
<path d="M132.33 189.06C134.602 188.774 136.89 188.637 139.18 188.65C141.473 188.632 143.765 188.769 146.04 189.06C141.486 189.607 136.884 189.607 132.33 189.06Z" fill="#EBEBEB"/>
<path d="M132.33 193.66C134.3 193.378 136.289 193.244 138.28 193.26C140.287 193.236 142.294 193.37 144.28 193.66C142.294 193.958 140.288 194.095 138.28 194.07C136.289 194.088 134.3 193.951 132.33 193.66Z" fill="#EBEBEB"/>
<path d="M132.33 198.27C137.399 197.723 142.511 197.723 147.58 198.27C145.047 198.561 142.499 198.698 139.95 198.68C137.404 198.693 134.86 198.556 132.33 198.27Z" fill="#EBEBEB"/>
<path d="M132.33 202.88C136.506 202.333 140.734 202.333 144.91 202.88C140.734 203.427 136.506 203.427 132.33 202.88Z" fill="#EBEBEB"/>
<path d="M132.33 207.48C134.95 207.199 137.584 207.062 140.22 207.07C142.856 207.057 145.49 207.194 148.11 207.48C145.491 207.776 142.856 207.913 140.22 207.89C137.584 207.908 134.95 207.771 132.33 207.48Z" fill="#EBEBEB"/>
<path d="M132.33 212.09C137.576 211.543 142.864 211.543 148.11 212.09C145.49 212.381 142.856 212.518 140.22 212.5C137.584 212.513 134.95 212.376 132.33 212.09Z" fill="#EBEBEB"/>
<path d="M154.86 175.24C157.346 174.954 159.847 174.817 162.35 174.83C164.853 174.812 167.354 174.949 169.84 175.24C164.855 175.788 159.825 175.788 154.84 175.24H154.86Z" fill="#EBEBEB"/>
<path d="M154.86 179.85C156.484 179.56 158.131 179.422 159.78 179.44C161.433 179.418 163.084 179.555 164.71 179.85C163.082 180.135 161.432 180.272 159.78 180.26C158.131 180.268 156.485 180.13 154.86 179.85Z" fill="#EBEBEB"/>
<path d="M154.86 184.45C159.541 183.903 164.269 183.903 168.95 184.45C164.269 184.997 159.541 184.997 154.86 184.45Z" fill="#EBEBEB"/>
<path d="M154.86 189.06C157.132 188.774 159.42 188.637 161.71 188.65C164.003 188.632 166.295 188.769 168.57 189.06C164.016 189.607 159.414 189.607 154.86 189.06Z" fill="#EBEBEB"/>
<path d="M154.86 193.66C157.346 193.377 159.848 193.243 162.35 193.26C164.853 193.239 167.354 193.373 169.84 193.66C167.355 193.956 164.853 194.093 162.35 194.07C159.847 194.088 157.346 193.951 154.86 193.66Z" fill="#EBEBEB"/>
<path d="M154.86 198.27C158.811 197.723 162.819 197.723 166.77 198.27C164.784 198.563 162.778 198.7 160.77 198.68C158.793 198.691 156.817 198.554 154.86 198.27Z" fill="#EBEBEB"/>
<path d="M154.86 202.88C159.541 202.333 164.269 202.333 168.95 202.88C164.269 203.427 159.541 203.427 154.86 202.88Z" fill="#EBEBEB"/>
<path d="M154.86 207.48C156.663 207.199 158.485 207.062 160.31 207.07C162.135 207.058 163.958 207.195 165.76 207.48C163.959 207.775 162.135 207.912 160.31 207.89C158.485 207.908 156.662 207.771 154.86 207.48Z" fill="#EBEBEB"/>
<path d="M154.86 212.09C158.325 211.543 161.855 211.543 165.32 212.09C163.592 212.38 161.842 212.517 160.09 212.5C158.338 212.513 156.588 212.376 154.86 212.09Z" fill="#EBEBEB"/>
<path d="M140.69 113.61H114.47V139.83H140.69V113.61Z" fill="#C7C7C7"/>
<path d="M129.14 116.27C129.14 116.581 129.048 116.885 128.875 117.143C128.702 117.402 128.456 117.603 128.168 117.721C127.881 117.84 127.565 117.87 127.26 117.809C126.955 117.748 126.675 117.597 126.456 117.377C126.237 117.156 126.088 116.875 126.029 116.57C125.97 116.265 126.002 115.949 126.122 115.662C126.243 115.376 126.446 115.131 126.705 114.96C126.965 114.788 127.269 114.698 127.58 114.7C127.786 114.7 127.989 114.741 128.179 114.82C128.369 114.899 128.542 115.015 128.687 115.16C128.832 115.306 128.946 115.48 129.024 115.67C129.102 115.86 129.141 116.064 129.14 116.27Z" fill="#455A64"/>
<path d="M187.23 103.02H183.69V243.34H187.23V103.02Z" fill="#C7C7C7"/>
<path d="M449.87 447.9C321.87 448.52 178.18 448.52 50.13 447.9C178.18 447.29 321.82 447.29 449.87 447.9Z" fill="#263238"/>
<path d="M428.35 328.86C408.69 348.1 405.35 377.86 409.53 403.95C409.64 404.54 410.53 404.38 410.53 403.82C410.53 397.88 410.35 392 410.37 386.14C410.47 385.87 410.56 385.62 410.67 385.35C415.8 381.62 420.52 377.41 423.44 371.63C426.72 365.18 428.01 357.89 430.52 351.15C430.75 350.51 430.07 350.7 429.62 351.03C417.62 359.85 413.85 369.33 410.42 382.03C410.488 375.399 411.185 368.79 412.5 362.29C415.08 350.29 420.19 338.29 428.84 329.4C429.19 329 428.69 328.52 428.35 328.86Z" fill="#263238"/>
<path d="M432 331.11C435.38 331.22 437.5 336.62 440.13 338.2C441.53 339.04 442.89 338.99 443.87 337.61C446.48 333.97 442.87 329.47 439.53 326.96C441.94 327.96 443.93 329.69 446.53 330.18C448.1 330.47 449.33 329.89 449.69 328.29C450.84 323.29 444.61 321.11 440.33 321.01C442.4 319.57 448.33 315.65 445.19 313.72C442.05 311.79 435.02 317.39 432.74 319.23C429.4 321.95 425.42 326 425.27 330.23C425.11 335.19 429.44 332.14 432 331.11Z" fill="#F2133C"/>
<path opacity="0.2" d="M432 331.11C435.38 331.22 437.5 336.62 440.13 338.2C441.53 339.04 442.89 338.99 443.87 337.61C446.48 333.97 442.87 329.47 439.53 326.96C441.94 327.96 443.93 329.69 446.53 330.18C448.1 330.47 449.33 329.89 449.69 328.29C450.84 323.29 444.61 321.11 440.33 321.01C442.4 319.57 448.33 315.65 445.19 313.72C442.05 311.79 435.02 317.39 432.74 319.23C429.4 321.95 425.42 326 425.27 330.23C425.11 335.19 429.44 332.14 432 331.11Z" fill="black"/>
<path d="M431.06 331.94C435.38 329.94 443.69 332.8 444.39 331.17C445.83 327.84 439.19 325.55 435.61 325.11C438.91 324.22 445.23 322.79 445.03 319.61C444.8 315.73 435.34 319.07 430.55 322.74C424.55 327.36 424.55 331.82 425.55 332.74C426.92 333.94 430.35 332.26 431.06 331.94Z" fill="#F2133C"/>
<path opacity="0.1" d="M431.06 331.94C435.38 329.94 443.69 332.8 444.39 331.17C445.83 327.84 439.19 325.55 435.61 325.11C438.91 324.22 445.23 322.79 445.03 319.61C444.8 315.73 435.34 319.07 430.55 322.74C424.55 327.36 424.55 331.82 425.55 332.74C426.92 333.94 430.35 332.26 431.06 331.94Z" fill="black"/>
<path d="M383.59 327C403.96 345.48 408.39 375.1 405.24 401.31C405.15 401.91 404.24 401.78 404.24 401.22C404.02 395.29 403.97 389.41 403.73 383.55C403.61 383.28 403.51 383.04 403.4 382.77C398.13 379.24 393.26 375.21 390.12 369.55C386.59 363.22 385.02 356 382.26 349.36C382 348.72 382.7 348.88 383.16 349.2C395.44 357.55 399.61 366.89 403.52 379.43C403.199 372.805 402.252 366.226 400.69 359.78C397.69 347.85 392.09 336.13 383.12 327.54C383.074 327.472 383.052 327.391 383.056 327.31C383.061 327.228 383.093 327.15 383.147 327.089C383.2 327.027 383.273 326.985 383.353 326.969C383.433 326.953 383.517 326.964 383.59 327Z" fill="#263238"/>
<path d="M380 329.34C376.63 329.58 374.71 335.06 372.14 336.74C370.78 337.63 369.42 337.63 368.39 336.3C365.64 332.75 369.05 328.12 372.32 325.48C369.95 326.56 368.02 328.38 365.44 328.97C365.113 329.091 364.763 329.14 364.415 329.115C364.066 329.089 363.728 328.989 363.422 328.821C363.115 328.653 362.849 328.422 362.64 328.142C362.431 327.862 362.284 327.541 362.21 327.2C360.88 322.28 367.02 319.83 371.29 319.56C369.16 318.2 363.08 314.51 366.16 312.47C369.24 310.43 376.46 315.75 378.8 317.47C382.25 320.06 386.38 323.96 386.7 328.19C387.06 333.16 382.62 330.28 380 329.34Z" fill="#F2133C"/>
<path opacity="0.2" d="M380 329.34C376.63 329.58 374.71 335.06 372.14 336.74C370.78 337.63 369.42 337.63 368.39 336.3C365.64 332.75 369.05 328.12 372.32 325.48C369.95 326.56 368.02 328.38 365.44 328.97C365.113 329.091 364.763 329.14 364.415 329.115C364.066 329.089 363.728 328.989 363.422 328.821C363.115 328.653 362.849 328.422 362.64 328.142C362.431 327.862 362.284 327.541 362.21 327.2C360.88 322.28 367.02 319.83 371.29 319.56C369.16 318.2 363.08 314.51 366.16 312.47C369.24 310.43 376.46 315.75 378.8 317.47C382.25 320.06 386.38 323.96 386.7 328.19C387.06 333.16 382.62 330.28 380 329.34Z" fill="black"/>
<path d="M381 330.14C376.6 328.34 368.41 331.48 367.65 329.87C366.09 326.6 372.65 324.06 376.2 323.48C372.87 322.72 366.49 321.48 366.57 318.35C366.66 314.46 376.24 317.43 381.16 320.92C387.36 325.31 387.49 329.77 386.53 330.7C385.2 332 381.71 330.43 381 330.14Z" fill="#F2133C"/>
<path opacity="0.1" d="M381 330.14C376.6 328.34 368.41 331.48 367.65 329.87C366.09 326.6 372.65 324.06 376.2 323.48C372.87 322.72 366.49 321.48 366.57 318.35C366.66 314.46 376.24 317.43 381.16 320.92C387.36 325.31 387.49 329.77 386.53 330.7C385.2 332 381.71 330.43 381 330.14Z" fill="black"/>
<path d="M404.42 375.76C405.796 385.65 407.909 395.424 410.74 405C410.787 405.18 410.901 405.335 411.058 405.433C411.215 405.532 411.404 405.567 411.587 405.532C411.769 405.496 411.931 405.392 412.039 405.241C412.147 405.091 412.194 404.904 412.17 404.72C410.83 395.72 408.39 386.87 407.05 377.87C405.587 368.761 405.064 359.526 405.49 350.31C406.34 335.13 410.49 318.99 420.37 307.12C420.58 306.84 420.12 306.44 419.9 306.7C400.07 329.82 403.23 358.15 403.25 360.7C400.44 351.13 397.55 340.17 386.93 330.42C386.48 330 386.12 330.2 386.19 330.92C388.09 348.66 393.03 357.92 403.32 367.42C403.61 370.2 404 373 404.42 375.76Z" fill="#263238"/>
<path d="M420.55 309.76C424.11 308.18 429.03 312.76 432.55 313.03C434.42 313.19 435.8 312.46 436.12 310.54C437 305.44 431.02 302.54 426.26 301.67C429.26 301.48 432.26 302.28 435.15 301.49C436.93 300.99 437.9 299.77 437.48 297.93C436.16 292.2 428.58 293.04 424.1 295.09C425.52 292.55 429.71 285.49 425.47 285.09C421.23 284.69 416.76 294.02 415.33 297.09C413.23 301.58 411.13 307.79 413.11 312.27C415.41 317.49 418.37 312.15 420.55 309.76Z" fill="#F2133C"/>
<path opacity="0.2" d="M420.55 309.76C424.11 308.18 429.03 312.76 432.55 313.03C434.42 313.19 435.8 312.46 436.12 310.54C437 305.44 431.02 302.54 426.26 301.67C429.26 301.48 432.26 302.28 435.15 301.49C436.93 300.99 437.9 299.77 437.48 297.93C436.16 292.2 428.58 293.04 424.1 295.09C425.52 292.55 429.71 285.49 425.47 285.09C421.23 284.69 416.76 294.02 415.33 297.09C413.23 301.58 411.13 307.79 413.11 312.27C415.41 317.49 418.37 312.15 420.55 309.76Z" fill="black"/>
<path d="M420 311.12C423.5 306.9 433.54 305.66 433.45 303.6C433.25 299.43 425.22 300.4 421.28 301.74C424.28 299.15 430.09 294.49 428.28 291.29C426.08 287.38 417.95 295.61 414.83 301.82C410.9 309.66 413.18 314.27 414.67 314.69C416.67 315.28 419.37 311.81 420 311.12Z" fill="#F2133C"/>
<path opacity="0.1" d="M420 311.12C423.5 306.9 433.54 305.66 433.45 303.6C433.25 299.43 425.22 300.4 421.28 301.74C424.28 299.15 430.09 294.49 428.28 291.29C426.08 287.38 417.95 295.61 414.83 301.82C410.9 309.66 413.18 314.27 414.67 314.69C416.67 315.28 419.37 311.81 420 311.12Z" fill="black"/>
<path d="M391.38 381.11L382.63 447.9H435.83C434.74 441.98 424.83 381.03 424.83 381.03L391.38 381.11Z" fill="#F2133C"/>
<path d="M444.3 148.01H240.18V158.48H444.3V148.01Z" fill="#455A64"/>
<path d="M256.95 158.48H249.59V193.11H256.95V158.48Z" fill="#455A64"/>
<path d="M256.95 158.48H249.59V169.18H256.95V158.48Z" fill="#263238"/>
<path d="M434.9 158.48H427.54V193.11H434.9V158.48Z" fill="#455A64"/>
<path d="M434.9 158.48H427.54V169.18H434.9V158.48Z" fill="#263238"/>
<path d="M419.91 86C419.927 94.6937 417.174 103.167 412.05 110.19C407.91 115.891 402.377 120.434 395.98 123.385C389.582 126.336 382.535 127.595 375.511 127.043C368.487 126.492 361.723 124.146 355.865 120.233C350.007 116.319 345.251 110.967 342.053 104.69C338.855 98.4122 337.321 91.419 337.598 84.3792C337.875 77.3395 339.955 70.4886 343.637 64.4823C347.319 58.4759 352.481 53.515 358.629 50.0741C364.777 46.6333 371.705 44.8276 378.75 44.83C379.88 44.83 381 44.83 382.11 44.96C388.484 45.4731 394.649 47.4733 400.11 50.8C404.327 53.3664 408.052 56.6648 411.11 60.54C412.031 61.7102 412.889 62.9286 413.68 64.19C417.766 70.7295 419.926 78.2888 419.91 86Z" fill="#455A64"/>
<path d="M387.64 105.45C387.12 106.84 387.99 106.89 388.04 107.45C388.09 108.01 388.04 109.12 386.37 110.79C384.7 112.46 381.93 112.12 381.37 112.79C380.81 113.46 379.81 116.42 378.43 117.4C377.05 118.38 376.81 117.81 374.85 118.21C372.89 118.61 371.39 121.15 370.85 122.36C370.31 123.57 370.96 125.59 369.58 125.65C368.2 125.71 367.58 122.71 366.29 121.09C365.189 119.643 364.477 117.939 364.22 116.14C363.81 114.23 364.45 110.26 364.22 108.7C363.99 107.14 359.84 104.38 358.34 102.47C356.84 100.56 354.76 96.77 354.88 95.47C355.054 94.2389 355.669 93.1126 356.61 92.3C357.3 91.78 357.01 91.49 357.13 91.03C357.25 90.57 357.82 90.45 357.93 89.88C358.04 89.31 357.59 87.57 357.01 87.28C356.43 86.99 356.01 87.97 355.69 87.8C355.37 87.63 354.3 86.42 353.9 86.3C353.5 86.18 353.61 87.05 353.03 85.96C352.45 84.87 352.17 82.09 351.71 81.63C351.25 81.17 350.9 82.44 349.81 81.63C348.72 80.82 348.25 79.27 347.81 79.04C347.37 78.81 346.71 79.1 346.24 78.17C345.77 77.24 346.66 75.58 346.24 75.75C345.82 75.92 344.93 77.25 344.7 75.98C344.47 74.71 345.85 70.45 345.62 68.14C345.528 66.9373 345.674 65.7283 346.05 64.5821C346.426 63.4359 347.024 62.375 347.81 61.46C347.81 61.46 348.04 60.19 348.27 59.38C348.5 58.57 353.46 55.38 354.03 54.38C354.269 53.8641 354.408 53.3076 354.44 52.74C361.499 47.5356 370.04 44.7317 378.81 44.74C379.94 44.74 381.06 44.74 382.17 44.87C382.201 44.924 382.238 44.9743 382.28 45.02C382.927 45.7956 383.802 46.3483 384.78 46.6C386.24 47.14 386.59 47.83 386.28 48.41C386.139 48.649 385.935 48.844 385.689 48.9729C385.443 49.1019 385.167 49.1598 384.89 49.14C384.32 49.14 383.78 48.87 383.17 49.25C382.56 49.63 381.94 51.71 381.17 51.83C380.4 51.95 378.94 49.98 378.63 49.41C378.32 48.84 379.32 47.6 378.85 47.02C378.38 46.44 377.56 46.56 376.25 46.45C374.94 46.34 371.91 46.83 372.02 47.33C372.13 47.83 376.48 47.25 376.59 48.25C376.7 49.25 373.41 50.94 372.83 50.79C372.25 50.64 371.48 49.64 370.64 49.52C369.8 49.4 369.1 50.1 368.57 50.18C368.04 50.26 367.41 49.6 366.57 49.75C365.73 49.9 365.57 50.6 365.15 50.87C364.73 51.14 363.73 51.14 363.61 51.75C363.49 52.36 364.88 52.75 365.23 53.1C365.58 53.45 364.8 54.79 365.15 55.1C365.5 55.41 367.65 53.48 368.15 53.02C368.65 52.56 369.15 50.56 370.3 50.6C371.45 50.64 371.84 52.6 372.22 52.79C372.6 52.98 373.45 52.33 374.72 52.6C375.99 52.87 376.87 55.6 377.1 56.48C377.33 57.36 377.87 58.17 377.41 58.48C376.914 58.5738 376.403 58.5531 375.916 58.4197C375.429 58.2863 374.979 58.0436 374.6 57.71C374.33 57.17 375.99 56.36 375.87 56.17C375.643 56.0134 375.38 55.9167 375.105 55.8887C374.831 55.8608 374.554 55.9025 374.3 56.01C373.8 56.31 373.57 56.94 373.03 57.09C372.49 57.24 371.03 55.63 370.68 56.09C370.33 56.55 371.07 58.02 371.45 58.36C371.83 58.7 373.26 58.9 373.37 59.28C373.48 59.66 372.37 60.51 371.11 60.44C369.85 60.37 368.72 59.36 368.22 59.78C367.72 60.2 367.99 61.32 367.65 61.7C367.31 62.08 365.42 61.82 364.5 62.82C363.58 63.82 363.15 65.32 362.23 66.16C361.31 67 360.88 65.93 359.65 67.16C358.42 68.39 358.2 71.1 358.16 72C358.12 72.9 358.16 73.65 357.86 73.54C357.429 73.1683 357.13 72.6663 357.01 72.11C356.89 71.61 357.28 70.77 357.28 70.46C356.583 69.5088 355.597 68.8075 354.47 68.46C353.47 68.31 352.47 69.16 351.75 69.77C351.03 70.38 349.59 70.27 349.09 70.77C348.59 71.27 348.21 75.69 348.59 76.77C348.97 77.85 349.48 77.77 350.71 77.27C351.94 76.77 351.25 75.69 351.98 75.92C352.308 76.0445 352.59 76.2664 352.789 76.556C352.987 76.8456 353.092 77.189 353.09 77.54C353.09 78.15 351.63 79.61 351.82 80.03C352.01 80.45 353.28 79.96 353.9 80.15C354.52 80.34 354.82 80.73 354.63 82.3C354.44 83.87 354.55 85.11 355.47 85.63C356.39 86.15 356.91 84.88 357.32 85.05C357.73 85.22 358.32 86.14 358.87 86.05C359.42 85.96 359.16 85.47 360.26 85.12C361.36 84.77 360.95 84.55 361.18 83.86C361.218 83.683 361.293 83.5161 361.401 83.3706C361.508 83.225 361.646 83.1042 361.804 83.0161C361.962 82.9281 362.137 82.8748 362.318 82.86C362.498 82.8451 362.68 82.869 362.85 82.93C363.6 83.28 363.08 83.8 363.14 84.37C363.2 84.94 364.52 85.01 365.56 85.37C366.6 85.73 367.18 85.37 369.25 86.07C371.32 86.77 371.44 88.83 372.31 89.18C373.18 89.53 376.05 88.95 378.13 90.45C380.21 91.95 379.63 94.71 380.66 95.52C381.69 96.33 385.56 97.42 387.06 97.71C388.56 98 388.79 96.96 390 97.25C390.594 97.3056 391.15 97.5669 391.571 97.9886C391.993 98.4104 392.254 98.9662 392.31 99.56C392.66 101 388.16 104.07 387.64 105.45Z" fill="#F2133C"/>
<path d="M356.66 76C356.66 76.32 357.66 76.46 358.82 77.11C359.98 77.76 360.39 79.69 361.01 79.65C361.63 79.61 361.43 78.73 361.66 78.49C361.761 78.4235 361.844 78.333 361.902 78.2265C361.959 78.1201 361.989 78.001 361.989 77.88C361.989 77.759 361.959 77.6399 361.902 77.5335C361.844 77.427 361.761 77.3365 361.66 77.27C361.05 76.77 360.45 75.69 359.32 75.54C358.19 75.39 358.01 74.92 357.51 74.96C357.382 74.9622 357.256 74.9923 357.141 75.048C357.026 75.1038 356.925 75.184 356.844 75.283C356.763 75.382 356.705 75.4974 356.673 75.6212C356.641 75.745 356.637 75.8743 356.66 76Z" fill="#F2133C"/>
<path d="M363 79.2C362.82 79.68 363 80.01 364.23 80.32C365.46 80.63 366.61 80.01 366.23 79.76C365.85 79.51 365.23 79.63 365.5 79.2C365.77 78.77 365.66 78.2 364.66 78.28C363.66 78.36 363.16 78.78 363 79.2Z" fill="#F2133C"/>
<path d="M367.31 79.34C366.89 79.4 366.66 80.13 367.08 80.59C367.5 81.05 367.5 80.97 368 80.59C368.5 80.21 369.27 80.01 369.08 79.59C368.89 79.17 367.73 79.28 367.31 79.34Z" fill="#F2133C"/>
<path d="M370.65 80.91C370.84 80.33 371.81 80.91 372.23 81.51C372.391 81.8456 372.474 82.2129 372.474 82.585C372.474 82.9571 372.391 83.3244 372.23 83.66C372 84.32 371.84 85.09 371.31 84.78C370.78 84.47 371.31 83.55 371.31 83.01C371.31 82.47 370.5 81.38 370.65 80.91Z" fill="#F2133C"/>
<path d="M387.22 48.84C387.02 49.33 387.95 49.5 388.49 49.84C389.03 50.18 389.49 50.33 389.75 49.84C389.806 49.728 389.837 49.6049 389.84 49.4795C389.843 49.3542 389.819 49.2297 389.768 49.115C389.717 49.0003 389.642 48.8982 389.547 48.8161C389.452 48.734 389.341 48.6739 389.22 48.64C388.79 48.5 387.41 48.38 387.22 48.84Z" fill="#F2133C"/>
<path d="M394.48 53.34C394.84 53.71 395.48 53.65 395.86 54.19C396.24 54.73 396.13 55.65 396.67 55.92C397.21 56.19 397.59 55.92 397.67 55.53C397.75 55.14 396.9 54.19 396.98 53.99C397.06 53.79 398.09 54.26 398.33 54.84C398.57 55.42 398.09 56.22 398.63 56.38C399.17 56.54 399.06 55.84 399.29 55.69C399.52 55.54 400.02 55.61 399.98 55.15C399.791 54.4431 399.39 53.8112 398.83 53.34C398.332 52.9037 397.74 52.5888 397.1 52.42C396.751 52.3208 396.385 52.2971 396.027 52.3506C395.668 52.4041 395.325 52.5334 395.02 52.73C394.56 53.07 394.26 53.11 394.48 53.34Z" fill="#F2133C"/>
<path d="M411.11 60.58C411.084 60.7373 411.007 60.8815 410.89 60.99C410.08 61.56 409.12 59.57 408.01 59.18C406.9 58.79 406.4 57.38 406.16 57.68C405.92 57.98 406.01 58.41 405.66 58.91C405.31 59.41 404.82 59.3 404.59 60.26C404.36 61.22 405.66 62.99 405.36 63.56C405.06 64.13 404.67 63.95 404.05 63.91C403.43 63.87 403.55 64.41 402.74 64.18C401.93 63.95 402.63 62.95 401.36 61.76C400.09 60.57 399.67 60.34 399.94 59.76C400.21 59.18 399.82 58.45 400.4 58.37C400.98 58.29 401.4 59.14 401.82 59.37C402.24 59.6 402.71 58.91 402.74 58.3C402.77 57.69 401.4 56.84 400.9 56.36C400.456 55.5842 400.331 54.6665 400.55 53.8C400.75 53.45 401.32 53.57 401.48 52.72C401.57 52.23 400.78 51.4 400.11 50.8C404.33 53.3784 408.055 56.6905 411.11 60.58Z" fill="#F2133C"/>
<path d="M416.85 95C416.96 93.77 416.35 93.69 416.96 91.42C417.145 90.5268 417.142 89.6049 416.951 88.713C416.76 87.8211 416.385 86.9788 415.85 86.24C415.39 85.74 414.39 85.89 413.58 86.39C412.77 86.89 413.35 87.27 412.81 87.47C412.27 87.67 411.74 87.35 411.24 87.39C410.74 87.43 410.24 88.7 409.24 88.66C408.24 88.62 407.47 87.08 406.67 85.99C405.87 84.9 404.21 84.2 403.67 82.85C403.13 81.5 404.17 79.43 403.94 77.85C403.71 76.27 402.67 76.62 402.48 75.73C402.29 74.84 402.63 75.27 402.9 74.43C403.17 73.59 402.59 73.12 403.13 71.66C403.67 70.2 404.63 69.47 404.4 68.82C403.967 68.0301 403.631 67.1906 403.4 66.32C403.4 65.56 404.13 65.59 405.59 64.51C407.05 63.43 407.43 63.51 408.59 63.9C409.391 64.193 410.213 64.4237 411.05 64.59C411.7 64.7 412.59 66.4 412.85 66.32C413.11 66.24 413.16 65.74 413.28 65.01C413.351 64.6908 413.519 64.4011 413.76 64.18C418.097 71.1392 420.258 79.2341 419.968 87.4289C419.677 95.6236 416.948 103.545 412.13 110.18C416 104.24 416.73 96.27 416.85 95Z" fill="#F2133C"/>
<path d="M426.1 86C426.227 90.2342 425.78 94.466 424.77 98.58L424.41 100.13L423.91 101.65L422.91 104.65L421.59 107.57C421.37 108.05 421.17 108.57 420.92 109.02L420.13 110.42C418.022 114.16 415.423 117.601 412.4 120.65L410 122.91C409.23 123.66 408.32 124.25 407.48 124.91C405.773 126.225 403.983 127.428 402.12 128.51C401.18 129.05 400.2 129.51 399.24 129.98L397.78 130.71C397.29 130.93 396.78 131.1 396.28 131.3L393.28 132.44L390.15 133.28L388.58 133.7L387 134L383.8 134.51L380.55 134.71L378.93 134.8C378.39 134.8 377.85 134.8 377.31 134.75L374.06 134.6C372.98 134.49 371.91 134.3 370.84 134.15C368.696 133.807 366.576 133.333 364.49 132.73C363.49 132.4 362.44 132 361.42 131.64L359.89 131.08C359.39 130.87 358.89 130.62 358.42 130.39L355.44 129L352.65 127.32C351.713 126.769 350.817 126.151 349.97 125.47C349.11 124.81 348.21 124.2 347.39 123.47C345.742 122.057 344.186 120.541 342.73 118.93C339.789 115.734 337.308 112.142 335.36 108.26L334 105.28C333.58 104.28 333.26 103.28 332.88 102.28L332.34 100.75C332.17 100.23 332.07 99.75 331.93 99.18L331.11 96C330.31 91.7497 330.051 87.4153 330.34 83.1C330.969 74.4664 333.943 66.1683 338.94 59.1C343.886 52.1331 350.638 46.6464 358.47 43.23C351.015 47.1049 344.701 52.8577 340.15 59.92C335.656 66.8925 333.077 74.9248 332.67 83.21C332.532 87.3116 332.867 91.4154 333.67 95.44L334.47 98.44C334.6 98.93 334.71 99.44 334.88 99.91L335.42 101.35C335.79 102.35 336.11 103.27 336.52 104.21L337.88 106.96C338.327 107.878 338.831 108.766 339.39 109.62C339.94 110.47 340.39 111.39 341.03 112.2C342.204 113.869 343.491 115.456 344.88 116.95C346.257 118.457 347.726 119.876 349.28 121.2C350.06 121.86 350.91 122.43 351.72 123.05L352.94 123.96C353.36 124.26 353.81 124.5 354.24 124.77C367.96 133.77 386.52 134.26 401.01 126.51C404.625 124.531 407.983 122.116 411.01 119.32C414.036 116.495 416.67 113.276 418.84 109.75L419.68 108.44C419.95 108 420.17 107.53 420.41 107.07L421.84 104.29L422.99 101.39L423.57 99.93L423.99 98.43C424.28 97.43 424.58 96.43 424.84 95.43L425.4 92.34C425.5 91.82 425.61 91.34 425.69 90.79L425.82 89.22L426.1 86Z" fill="#263238"/>
<path d="M362.48 48.77L356.9 51.42L352.97 39.67L355.84 38.31L362.48 48.77Z" fill="#263238"/>
<path d="M382.63 133.38H376.65V148.03H382.63V133.38Z" fill="#263238"/>
<path d="M401.55 142.58H357.72V148.01H401.55V142.58Z" fill="#263238"/>
<path d="M436.96 450.01H217.16V455.42H436.96V450.01Z" fill="#F2133C"/>
<path d="M312.42 450.01V441.96L230.93 443.54L220.22 450.01H312.42Z" fill="#EBEBEB"/>
<path d="M312.42 450V442C312.42 442 338.91 442.46 343.6 442C348.29 441.54 372.23 439.31 376.11 439.52C379.99 439.73 387.55 444.3 387.55 444.3V450H312.42Z" fill="#DBDBDB"/>
<path d="M434.81 450L432.89 445.43C432.89 445.43 421.24 445.67 419.56 445.43C417.88 445.19 402.08 440.62 398.66 441.24C395.24 441.86 387.55 444.24 387.55 444.24V450H434.81Z" fill="#DBDBDB"/>
<path d="M214.44 318.03H60.05V399.09H214.44V318.03Z" fill="#F2133C"/>
<path opacity="0.5" d="M214.44 318.03H60.05V399.09H214.44V318.03Z" fill="black"/>
<path d="M50.21 399.09H60.05L60.05 318.03H50.21L50.21 399.09Z" fill="#F2133C"/>
<path opacity="0.7" d="M50.21 399.09H60.05L60.05 318.03H50.21L50.21 399.09Z" fill="black"/>
<path d="M89.66 399.09H74.39V447.85H89.66V399.09Z" fill="#C7C7C7"/>
<path d="M200.09 399.09H184.82V447.85H200.09V399.09Z" fill="#C7C7C7"/>
<path d="M86.18 373C86.1839 373.82 85.9446 374.623 85.4924 375.308C85.0401 375.992 84.3951 376.527 83.6389 376.845C82.8827 377.163 82.0492 377.25 81.2437 377.095C80.4382 376.939 79.6968 376.549 79.1133 375.972C78.5297 375.395 78.1301 374.659 77.965 373.855C77.7999 373.052 77.8766 372.217 78.1855 371.457C78.4944 370.697 79.0216 370.046 79.7006 369.585C80.3795 369.125 81.1797 368.876 82 368.87C82.5462 368.865 83.088 368.968 83.5943 369.173C84.1005 369.378 84.5612 369.681 84.9498 370.065C85.3383 370.449 85.6471 370.906 85.8582 371.409C86.0693 371.913 86.1787 372.454 86.18 373Z" fill="white"/>
<path d="M196.6 373C196.6 373.819 196.357 374.619 195.902 375.3C195.447 375.981 194.801 376.512 194.044 376.825C193.288 377.138 192.455 377.22 191.652 377.06C190.849 376.901 190.112 376.506 189.533 375.927C188.954 375.348 188.559 374.611 188.4 373.808C188.24 373.005 188.322 372.172 188.635 371.416C188.948 370.659 189.479 370.013 190.16 369.558C190.841 369.103 191.641 368.86 192.46 368.86C193.558 368.86 194.611 369.296 195.387 370.073C196.164 370.849 196.6 371.902 196.6 373Z" fill="white"/>
<path d="M200 305.84C220.27 307.91 300.18 294.62 320.13 270.21C330.69 257.31 328.19 160.44 327.28 151.7C326.68 145.98 262.17 149.11 262.91 157.88C264.91 181.5 271.98 236.88 266.83 241.5C251.14 255.5 228.68 263.89 200.19 279.86C180.34 291 177.63 303.56 200 305.84Z" fill="#AD6359"/>
<path d="M322 115C327.3 127.12 328.44 156.15 326 163.26C323.56 170.37 274.29 173.95 269.15 168.26C264.01 162.57 249.33 120.33 252.84 107.26C256.35 94.19 316.51 102.47 322 115Z" fill="#AD6359"/>
<path d="M251.49 128.41C258.49 129.15 258.7 123.41 258.7 123.41C258.7 123.41 259.7 136.97 267.22 138.86C274.46 140.65 275.88 129.64 275.99 128.86C276.05 129.57 277.29 142.01 285.04 143.13C293.04 144.28 292.61 132.98 292.58 132.25C292.84 132.91 296.58 141.57 302.58 141.08C313.02 140.23 304.18 117.84 307.88 110.2C307.88 110.2 321.54 115 321.96 115.05C321.96 115.05 313.96 93.57 303.41 89.15C301.881 88.4851 300.17 88.3615 298.561 88.7997C296.952 89.2378 295.541 90.2115 294.56 91.56C294.56 91.56 292.75 84.35 286.68 83.28C283.56 82.74 279.92 87.28 279.92 87.28C279.92 87.28 278.23 81.57 272.77 80.96C268.42 80.45 265.44 85.05 265.44 85.05C265.44 85.05 262.86 54.78 254.84 54.53C241.03 54.11 250.19 118.53 245.75 122.74C243.59 124.75 248.45 128.09 251.49 128.41Z" fill="#AD6359"/>
<path d="M264.9 85.64C264.906 85.6172 264.903 85.5931 264.893 85.572C264.882 85.5508 264.865 85.534 264.844 85.5244C264.822 85.5149 264.798 85.5132 264.775 85.5197C264.753 85.5262 264.733 85.5405 264.72 85.56C259.1 96.98 256.41 111.25 258.57 123.87C258.64 124.28 259.98 125.71 259.93 125.24C258.68 113.52 260.93 98.54 264.9 85.64Z" fill="#263238"/>
<path d="M279.93 87C279.93 86.86 279.74 86.78 279.67 86.92C273.94 98.72 271.36 114.92 275.56 129.13C275.7 129.62 276.32 129.91 276.2 129.34C274.13 119.68 276.29 98.62 279.93 87Z" fill="#263238"/>
<path d="M293.21 133.13C289.72 119.3 291.01 105.75 294.33 92.02C294.33 91.84 294.12 91.79 294.04 91.93C290.58 98.21 289.38 107.18 289.04 114.24C288.589 120.788 289.865 127.34 292.74 133.24C292.84 133.49 293.29 133.42 293.21 133.13Z" fill="#263238"/>
<path d="M258.53 123.56C258.62 124.06 259.66 122.9 259.76 123.39C260.9 128.75 263.4 138.24 267.97 138.31C271.64 138.31 274.23 133.46 274.49 131.19L275.15 125.48L276.52 131.07C277.11 133.545 278.096 135.909 279.44 138.07C280.79 140.17 282.69 141.91 284.92 142.23C285.996 142.47 287.122 142.331 288.107 141.837C289.093 141.344 289.878 140.525 290.33 139.52C291.313 137.259 291.695 134.782 291.44 132.33L291 125.53L293.63 131.78C294.359 133.519 295.31 135.156 296.46 136.65C297.49 138.115 298.931 139.242 300.6 139.89C301.36 140.153 302.178 140.199 302.962 140.022C303.747 139.845 304.466 139.453 305.04 138.89C306.13 137.437 306.78 135.702 306.91 133.89C307.43 130.06 307.13 126.06 307.03 122.09C306.96 120.09 306.89 118.09 306.92 116.09C306.833 114.078 307.174 112.071 307.92 110.2C307.396 112.113 307.243 114.109 307.47 116.08C307.6 118.08 307.82 120.08 308.03 122.02C308.582 126.015 308.753 130.053 308.54 134.08C308.478 136.269 307.764 138.389 306.49 140.17C305.7 141.068 304.664 141.714 303.511 142.029C302.357 142.343 301.136 142.312 300 141.94C297.903 141.203 296.075 139.855 294.75 138.07C293.448 136.418 292.363 134.607 291.52 132.68L293.71 132.13C294.047 135.029 293.623 137.965 292.48 140.65C291.799 142.119 290.629 143.307 289.17 144.01C287.719 144.651 286.109 144.839 284.55 144.55C281.38 144.02 279.07 141.66 277.61 139.29C276.158 136.884 275.11 134.256 274.51 131.51L276.51 131.39C276.08 134.26 273.77 140.05 268.08 140.7C260.57 140.41 258.69 126.19 258.53 123.56Z" fill="#263238"/>
<path d="M269.17 168.24C269.17 168.24 239.35 147.05 236.61 135C233.87 122.95 253.29 103.53 261.5 97.58C272.83 89.37 277.57 98.32 275.16 105.49C272.37 113.8 264.24 124.34 263.69 125.09C263.69 125.09 284.88 128.41 290.93 142.81C296.98 157.21 269.17 168.24 269.17 168.24Z" fill="#AD6359"/>
<path d="M247.14 111.28C250.556 106.901 254.361 102.841 258.51 99.15C260.577 97.193 262.94 95.5733 265.51 94.35C270.03 92.28 275.51 93.87 276.51 99.18C278.03 107.18 269.65 119.93 264.36 125.68L263.77 124.18C274.3 125.41 284.38 131.29 289.77 140.48C285.099 134.246 278.541 129.687 271.07 127.48C268.068 126.558 264.965 126.004 261.83 125.83L263.04 124.48C267.67 119.17 275.81 106.74 274.61 99.59C273.96 95.36 269.61 94.37 266.07 95.85C263.613 96.9458 261.324 98.3833 259.27 100.12C254.982 103.58 250.927 107.318 247.13 111.31L247.14 111.28Z" fill="#263238"/>
<path d="M266.85 301.32L243.25 254.57C243.25 254.57 210.9 271 186.32 288.18C161.74 305.36 175.11 313.25 201 311.75C226.89 310.25 266.85 301.32 266.85 301.32Z" fill="#F2133C"/>
<path d="M236.55 261.25C242.471 274.619 249.08 287.673 256.35 300.36C256.46 300.55 256.77 300.36 256.68 300.18C250.776 286.803 244.181 273.742 236.92 261.05C236.81 260.84 236.46 261 236.55 261.25Z" fill="#263238"/>
<path opacity="0.1" d="M223.22 309.35C215.51 310.46 207.8 311.35 201.04 311.75C175.12 313.25 161.75 305.38 186.32 288.18C188.72 286.5 191.19 284.83 193.7 283.18L223.22 309.35Z" fill="black"/>
<path d="M83.91 447.85H244.6C246.77 446.23 226.75 329.06 201.29 288.61C196.52 281.04 173.69 269.48 155.83 283.18C101.9 324.53 81.89 445.26 83.91 447.85Z" fill="#F2133C"/>
<path opacity="0.1" d="M198.05 285.07H153.45C154.24 284.43 155.03 283.79 155.83 283.18H195.52C196.398 283.762 197.243 284.393 198.05 285.07ZM207.54 300.22H138.62C138.11 300.84 137.62 301.47 137.11 302.1H208.41L207.54 300.22ZM214.54 317.22H126.64C126.25 317.84 125.87 318.47 125.49 319.11H215.28C215.05 318.5 214.81 317.87 214.58 317.25L214.54 317.22ZM220.33 334.22H117.22C116.9 334.85 116.6 335.47 116.29 336.1H221C220.76 335.54 220.57 334.91 220.37 334.29L220.33 334.22ZM225.33 351.22H109.45C109.18 351.85 108.92 352.48 108.66 353.11H225.91C225.74 352.58 225.56 352 225.39 351.32L225.33 351.22ZM229.8 368.22H102.8C102.57 368.85 102.35 369.47 102.13 370.1H230.33C230.18 369.61 230 369 229.86 368.36L229.8 368.22ZM233.8 385.22H97.21C97.01 385.85 96.82 386.48 96.63 387.11H234.33C234.19 386.66 234.05 386 233.9 385.39L233.8 385.22ZM237.46 402.22H92.36C92.19 402.85 92.03 403.48 91.87 404.1H238C237.82 403.69 237.7 403.06 237.56 402.43L237.46 402.22ZM240.75 419.22H88.26C88.11 419.86 87.98 420.49 87.85 421.11H241.19C241.08 420.73 241 420.1 240.85 419.46L240.75 419.22ZM243.57 436.22H85C84.9 436.87 84.8 437.5 84.71 438.1H243.93C243.85 437.78 243.76 437.15 243.67 436.5L243.57 436.22Z" fill="black"/>
<path d="M148.12 290.38C110.29 339.66 64.19 429.78 74.34 446.31C87.21 467.26 165.67 457.89 183.76 452.36C191.47 450 175.34 382.7 167.04 385.05C159.81 387.1 144.85 389.83 144.53 388.83C144.21 387.83 157.05 354.45 167.22 306.92C174.15 274.53 156.14 279.93 148.12 290.38Z" fill="#AD6359"/>
<path d="M110.44 412.6C114.95 405.87 129.1 393.21 144.24 389.11C144.58 389.02 144.84 389.23 144.54 389.38C132.301 395.75 120.883 403.588 110.54 412.72C110.49 412.78 110.39 412.68 110.44 412.6Z" fill="#263238"/>
<path d="M156.18 388.62C156.18 388.62 180.05 374.05 194.96 370.28C214.96 365.28 234.24 369.09 242.23 371.2C258.92 375.59 296.23 397.76 291.73 409.63C287.65 420.37 250.65 395.78 250.65 395.78C250.65 395.78 292.51 414.62 285.22 426.65C277.93 438.68 236.6 407.65 236.6 407.65C236.6 407.65 279.17 427.97 269.69 439.18C262.53 447.66 223.51 421.7 223.51 421.7C223.51 421.7 260 439.47 253 448.5C245.28 458.5 207.76 436.77 207.76 436.77C186.12 456.77 167.65 457.39 154.45 456.29C151.25 456 156.18 388.62 156.18 388.62Z" fill="#AD6359"/>
<path d="M236.59 388.33C241.59 390.33 246.66 392.39 251.46 394.87C256.26 397.35 260.97 399.98 265.52 402.87C276.67 410 282.52 416.22 282.14 415.87C272.58 407.73 255.53 398.61 250.73 396.14C245.93 393.67 241.28 390.96 236.49 388.49C236.37 388.45 236.47 388.28 236.59 388.33Z" fill="#263238"/>
<path d="M227.34 405.5C233.61 408.37 239.94 411 246.08 414.15C252.22 417.3 257.72 420.8 263.61 424.35C264.06 424.63 263.76 424.78 263.3 424.52C257.3 421.21 251.46 418.61 245.4 415.37C239.34 412.13 233.4 408.65 227.26 405.64C227.17 405.6 227.25 405.46 227.34 405.5Z" fill="#263238"/>
<path d="M216.76 418.81C226.56 422.71 235.64 428.42 244.4 434.23C244.84 434.52 244.4 434.68 243.97 434.41C234.88 429.11 227.78 424.88 216.62 419.15C216.45 419.06 216.55 418.73 216.76 418.81Z" fill="#263238"/>
<path d="M103.62 351L153.72 366.27C153.72 366.27 164.23 331.54 168.79 301.9C173.35 272.26 158.42 276.47 141.59 296.23C124.76 315.99 103.62 351 103.62 351Z" fill="#F2133C"/>
<path d="M166.27 327.44C166.274 327.415 166.27 327.389 166.258 327.367C166.246 327.345 166.226 327.328 166.203 327.319C166.179 327.309 166.153 327.308 166.129 327.316C166.105 327.323 166.084 327.339 166.07 327.36C165.33 329 164.597 330.647 163.87 332.3C164.53 329.01 165.13 325.7 165.65 322.37C165.65 322.26 165.49 322.21 165.46 322.32C163.46 329.54 161.46 336.76 159.63 344.02C157.8 351.28 155.53 358.45 153.72 365.73C152.3 365.54 151.53 365.36 150.47 365.26C150.22 365.26 150.08 365.51 150.32 365.61C151.68 366.19 154.32 367.04 154.43 366.86C157.06 359.86 159.05 352.03 160.98 344.8C161.933 341.233 162.78 337.653 163.52 334.06C164.56 331.907 165.478 329.697 166.27 327.44Z" fill="#263238"/>
<path d="M153.52 356.82C139.768 351.857 125.769 347.605 111.58 344.08C111.37 344.03 111.28 344.38 111.48 344.45C125.226 349.43 139.222 353.692 153.41 357.22C153.64 357.28 153.74 356.9 153.52 356.82Z" fill="#263238"/>
<path d="M169.5 286.81C170.3 289.52 184.42 306.62 196.95 305.32C201.02 304.89 199.67 282.52 199.67 282.52L199.95 280.85L203.81 257.42L171.59 239.42C171.59 239.42 169.18 285.66 169.5 286.81Z" fill="#AD6359"/>
<path d="M203.81 257.43L199.94 280.84L199.67 282.53C199.67 282.53 199.91 286.58 199.88 291.26C182.62 289.68 174.06 277.26 170.14 268.59C170.76 255.24 171.59 239.43 171.59 239.43L203.81 257.43Z" fill="#263238"/>
<path d="M234.12 213.24C246.26 262.65 218.04 275.5 207.38 278.11C197.71 280.48 164.47 287.31 147.28 239.42C130.09 191.53 149.23 170.26 171.07 163.67C192.91 157.08 222 163.83 234.12 213.24Z" fill="#AD6359"/>
<path d="M215.89 220.53C221.42 219.43 223.22 230.58 218.09 231.6C212.96 232.62 211.25 221.45 215.89 220.53Z" fill="#263238"/>
<path d="M187.48 226.12C181.9 227.01 184.09 238.12 189.26 237.27C194.43 236.42 192.15 225.38 187.48 226.12Z" fill="#263238"/>
<path d="M218.33 212.89C217.13 212.95 216.01 212.81 214.82 212.76C213.48 212.69 212.4 212.76 211.27 211.94C210.974 211.67 210.777 211.309 210.708 210.915C210.639 210.52 210.703 210.114 210.89 209.76C211.78 208.3 213.45 207.97 215.07 207.98C216.709 207.934 218.306 208.501 219.55 209.57C219.821 209.83 220.01 210.163 220.095 210.529C220.18 210.894 220.156 211.277 220.026 211.629C219.897 211.982 219.667 212.288 219.366 212.512C219.065 212.736 218.705 212.868 218.33 212.89Z" fill="#263238"/>
<path d="M181.68 220.72C182.79 220.347 183.878 219.913 184.94 219.42C186.19 218.91 187.23 218.63 188.02 217.42C188.205 217.065 188.268 216.66 188.199 216.266C188.131 215.872 187.934 215.511 187.64 215.24C186.31 214.16 184.64 214.41 183.1 214.96C181.543 215.467 180.231 216.537 179.42 217.96C179.239 218.297 179.163 218.679 179.199 219.059C179.236 219.439 179.385 219.8 179.627 220.096C179.869 220.391 180.193 220.608 180.559 220.719C180.924 220.831 181.314 220.831 181.68 220.72Z" fill="#263238"/>
<path d="M197.84 255.85C198.75 256.57 199.7 257.59 200.96 257.56C202.236 257.39 203.463 256.954 204.56 256.28C204.67 256.28 204.79 256.33 204.73 256.44C204.316 257.173 203.71 257.779 202.977 258.193C202.244 258.607 201.412 258.814 200.57 258.79C198.98 258.69 198.06 257.43 197.57 256.05C197.45 255.85 197.71 255.75 197.84 255.85Z" fill="#263238"/>
<path d="M210 241.1C210 241.1 211.56 246.1 212 248.49C212 248.71 211.47 248.92 210.66 249.1C210.66 249.1 210.66 249.1 210.57 249.1C208.568 249.826 206.405 249.987 204.318 249.563C202.23 249.14 200.301 248.149 198.74 246.7C198.53 246.5 198.79 246.2 199.04 246.31C202.6 248.1 206.21 248.11 209.99 247.54C210.05 246.84 206.99 239 207.4 239C209.05 239 211.99 239.24 213.08 239.32C212.08 236.06 208.99 226.93 207.28 220.99C207.18 220.62 207.74 220.4 207.89 220.73C211.002 227.288 213.675 234.047 215.89 240.96C216.07 241.52 211.07 241.34 210 241.1Z" fill="#263238"/>
<path d="M145.26 242.45C159.79 242.06 165.65 224.12 160.92 210.6C160.92 210.6 199.79 211.95 198.63 180.96C201.735 184.877 205.76 187.967 210.346 189.956C214.932 191.944 219.938 192.77 224.92 192.36L231.11 202.83C234.94 201.31 237.24 190.18 226.76 182.35C226.76 182.35 224.6 167.05 212.38 158.94C200.16 150.83 189.5 157.94 189.5 157.94C189.5 157.94 179.77 151.3 165.81 154.49C151.85 157.68 147.28 171.14 147.28 171.14C147.28 171.14 128.62 176.62 126.7 190.44C124.78 204.26 132.64 212.64 132.64 212.64C132.64 212.64 128.39 218.41 131.94 229.64C134.22 237 140.9 242.57 145.26 242.45Z" fill="#263238"/>
<path d="M197.51 178.31C198.046 180.781 198.321 183.302 198.33 185.83C198.405 188.318 198.177 190.807 197.65 193.24C196.643 198.056 193.853 202.314 189.84 205.16C185.95 208.22 180.84 209.16 176.04 210.09C173.54 210.26 171.04 210.61 168.52 210.63C166 210.65 163.47 210.56 160.92 210.63C163.43 210.99 165.97 211.23 168.51 211.54C171.05 211.69 173.62 211.54 176.19 211.54C181.24 210.84 186.55 209.89 190.87 206.7C195.206 203.541 198.126 198.803 199 193.51C199.787 188.399 199.274 183.171 197.51 178.31Z" fill="#263238"/>
<path d="M147.28 171.18C142.407 171.696 137.692 173.21 133.43 175.63C128.983 178.03 125.529 181.927 123.68 186.63C122.918 189.018 122.543 191.513 122.57 194.02C122.503 196.517 122.868 199.007 123.65 201.38C125.142 206.129 128.351 210.151 132.65 212.66C128.898 209.71 126.212 205.616 125 201C123.806 196.468 123.941 191.687 125.39 187.23C126.159 185.055 127.329 183.043 128.84 181.3C130.424 179.576 132.218 178.057 134.18 176.78C138.225 174.235 142.646 172.345 147.28 171.18Z" fill="#263238"/>
<path d="M189.5 158C192.989 156.325 196.722 155.217 200.56 154.72C204.305 154.216 208.116 154.681 211.63 156.07C215.081 157.602 218.09 159.978 220.38 162.98C222.732 166.054 224.619 169.457 225.98 173.08C225.249 169.172 223.717 165.457 221.48 162.17C219.297 158.704 216.096 155.998 212.315 154.423C208.534 152.848 204.358 152.48 200.36 153.37C196.448 154.11 192.743 155.69 189.5 158Z" fill="#263238"/>
<path d="M219 194.19C214.661 193.169 210.522 191.436 206.75 189.06C204.918 187.87 203.253 186.441 201.8 184.81C200.333 183.118 199.062 181.267 198.01 179.29C198.454 181.581 199.378 183.751 200.72 185.66C202.052 187.598 203.751 189.256 205.72 190.54C207.682 191.825 209.835 192.79 212.1 193.4C214.339 194.049 216.672 194.316 219 194.19Z" fill="#263238"/>
<path d="M157.79 241.67C157.79 241.67 144.37 227.67 137.86 232.67C131.35 237.67 143.14 259.19 152 261C153.119 261.309 154.288 261.389 155.439 261.235C156.589 261.08 157.696 260.695 158.694 260.102C159.691 259.509 160.559 258.72 161.244 257.783C161.929 256.846 162.417 255.78 162.68 254.65L157.79 241.67Z" fill="#AD6359"/>
<path d="M141.39 238.77C141.365 238.777 141.344 238.793 141.328 238.813C141.313 238.834 141.304 238.859 141.304 238.885C141.304 238.911 141.313 238.936 141.328 238.957C141.344 238.977 141.365 238.993 141.39 239C147.63 240.46 151.56 245.42 154.6 250.72C152.52 248.82 149.96 248 147.37 250.53C147.24 250.66 147.37 250.88 147.58 250.82C148.555 250.34 149.653 250.172 150.727 250.338C151.8 250.505 152.796 250.998 153.58 251.75C154.887 253.029 156.053 254.444 157.06 255.97C157.42 256.45 158.32 255.97 158.06 255.45C158.06 255.45 158.01 255.37 157.99 255.32C157 247.83 149.53 238.27 141.39 238.77Z" fill="#263238"/>
</svg>
