<svg width="182" height="182" viewBox="0 0 182 182" fill="none" xmlns="http://www.w3.org/2000/svg">
<path d="M28.2682 85.9731C-6.37728 105.975 -6.37364 138.389 28.2682 158.409C62.9101 178.429 119.083 178.411 153.728 158.409C188.374 138.407 188.37 105.993 153.728 85.9731C119.086 65.9531 62.9138 65.9713 28.2682 85.9731Z" fill="#FAFAFA"/>
<path d="M174.32 115.439L168.634 108.982L108.698 74.3215C107.205 73.3023 104.97 75.3698 104.1 77.4555C103.965 77.7667 103.863 78.0912 103.795 78.4238C103.627 79.2901 103.773 80.0727 104.417 80.5131L164.841 115.457L173.133 117.095L175.39 117.543C175.457 117.558 175.527 117.551 175.591 117.523C175.654 117.496 175.706 117.449 175.741 117.389C175.775 117.329 175.79 117.26 175.782 117.191C175.775 117.123 175.746 117.059 175.699 117.008L174.32 115.439Z" fill="#E0E0E0"/>
<path d="M73.4516 70.9545L7.16716 115.417C6.18072 116.08 6.18436 117.081 7.16716 117.656L96.784 169.344C97.3461 169.623 97.9702 169.755 98.5974 169.727C99.2246 169.699 99.8344 169.512 100.369 169.184L166.654 124.721C167.64 124.058 167.637 123.054 166.654 122.479L77.037 70.7944C76.4747 70.5152 75.8507 70.3834 75.2236 70.4114C74.5964 70.4394 73.9867 70.6263 73.4516 70.9545Z" fill="#E0E0E0"/>
<path d="M111.348 81.3903L112.123 81.8344L113.055 82.3731L165.911 112.949C165.62 112.298 165.846 110.998 166.512 109.753C167.284 108.297 168.467 107.151 169.322 107.107L116.717 76.6765L114.929 75.65C116.051 76.378 112.476 82.1037 111.348 81.3903Z" fill="#455A64"/>
<path d="M116.637 76.6256L114.904 75.6355C114.412 75.3334 113.481 76.2179 112.662 77.3864C111.57 78.937 110.689 80.99 111.34 81.3904L112.618 82.1184L113.077 82.3695C112.425 81.9691 113.306 79.9125 114.398 78.3655C115.181 77.248 116.08 76.3853 116.582 76.5928C116.603 76.5983 116.622 76.6097 116.637 76.6256Z" fill="#EBEBEB"/>
<path d="M116.203 76.3817C115.06 75.6755 111.5 81.4304 112.64 82.1365L114.369 83.1303C113.229 82.4241 116.789 76.6693 117.932 77.3754L116.203 76.3817Z" fill="#FF0000"/>
<path d="M119.578 78.3255L117.87 77.3427C116.757 76.6402 113.262 82.1621 114.209 83.0393C114.227 83.0579 114.248 83.0739 114.271 83.0866L115.996 84.0622C114.878 83.356 118.446 77.6084 119.578 78.3255Z" fill="#EBEBEB"/>
<path d="M114.929 75.6391H114.904C114.416 75.3261 113.484 76.2179 112.665 77.39C111.573 78.9115 110.707 80.9244 111.315 81.3721L104.104 77.2262C103.525 76.8294 103.376 76.1342 103.543 75.3443C103.944 73.2404 106.404 70.5723 107.962 71.6351L114.929 75.6391Z" fill="#F28F8F"/>
<path d="M173.93 113.204C173.333 114.012 173.391 114.409 173.391 114.409L165.911 112.935C165.183 111.803 165.656 109.961 166.683 108.65L167.011 108.836L173.93 113.204Z" fill="#F28F8F"/>
<path d="M175.426 114.813L173.391 114.416C173.391 114.416 173.3 114.019 173.93 113.211L175.706 114.332C175.756 114.39 175.782 114.465 175.778 114.541C175.773 114.617 175.74 114.688 175.685 114.74C175.651 114.773 175.61 114.797 175.565 114.81C175.52 114.823 175.472 114.824 175.426 114.813Z" fill="#37474F"/>
<path d="M169.318 107.1L174.451 112.924C174.247 112.96 174.062 113.062 173.923 113.215L167.007 108.847L166.679 108.661C167.382 107.762 168.335 107.111 169.318 107.1Z" fill="#FFA8A7"/>
<path d="M173.93 113.204C173.991 113.119 174.07 113.05 174.161 112.999C174.253 112.949 174.354 112.919 174.458 112.913L175.706 114.325L173.93 113.204Z" fill="#455A64"/>
<path opacity="0.2" d="M166.683 108.658L104.268 73.5898C103.923 74.1268 103.676 74.7209 103.54 75.3443C103.387 76.1269 103.522 76.8258 104.104 77.2262L111.348 81.3904L112.123 81.8344L113.055 82.3732L165.911 112.949C164.998 111.537 165.984 109.455 166.683 108.658Z" fill="black"/>
<path d="M75.1624 73.1968L12.3141 111.897L11.0292 114.158V115.934C11.0345 116.375 11.1583 116.807 11.3875 117.184C11.6167 117.561 11.943 117.87 12.3323 118.078L95.5973 166.221C96.2596 166.582 97.0103 166.748 97.7631 166.701C98.5303 166.676 99.2762 166.443 99.9216 166.028L161.35 124.801V123.028L75.1624 73.1968Z" fill="#263238"/>
<path d="M97.7522 164.928C97.0002 164.975 96.2504 164.807 95.59 164.444L12.3323 116.302C11.9428 116.094 11.6163 115.785 11.387 115.408C11.1577 115.031 11.0341 114.599 11.0292 114.158C11.0375 113.704 11.1595 113.259 11.384 112.864C11.6084 112.469 11.9282 112.137 12.3141 111.897L72.3741 71.5879L161.343 123.032L99.9107 164.251C99.2653 164.667 98.5196 164.901 97.7522 164.928Z" fill="#FF0000"/>
<path d="M72.3596 66.3827L12.973 106.233L12.376 107.183L12.4051 114.099C12.4184 114.29 12.4825 114.474 12.5906 114.631C12.6988 114.789 12.8472 114.914 13.0203 114.995L96.2671 163.134C96.7305 163.364 97.2449 163.473 97.7619 163.45C98.2789 163.427 98.7816 163.273 99.2228 163.003L158.613 123.152L158.58 116.236L72.3596 66.3827Z" fill="#EBEBEB"/>
<path d="M158.584 116.24L157.856 116.738L148.192 123.221L146.394 124.433L99.2118 156.101C98.7705 156.371 98.2679 156.525 97.7509 156.548C97.234 156.571 96.7197 156.462 96.2562 156.232L12.9766 108.079C12.1649 107.606 12.1613 106.776 12.9766 106.23L13.7665 105.702L72.3705 66.3899L157.845 115.81L158.023 115.919L158.584 116.24Z" fill="#F0F0F0"/>
<path d="M97.7158 156.542L97.7449 163.458C97.2393 163.488 96.7351 163.377 96.2889 163.138L13.0094 114.991C12.8364 114.911 12.6884 114.785 12.5808 114.627C12.4732 114.47 12.41 114.286 12.3978 114.096L12.3651 107.18C12.3802 107.369 12.4446 107.552 12.5518 107.709C12.6591 107.866 12.8055 107.992 12.9766 108.075L96.2416 156.222C96.6932 156.465 97.2041 156.576 97.7158 156.542Z" fill="#E0E0E0"/>
<path d="M158.58 115.319L147.89 122.49L146.212 123.614L99.1936 155.166C98.7526 155.437 98.2501 155.591 97.7332 155.615C97.2162 155.638 96.7018 155.53 96.238 155.301L21.6762 112.188C21.0064 111.824 20.384 111.46 19.8016 111.096C16.7658 109.24 14.9349 107.54 13.7592 105.695L13.6172 105.462C13.5231 105.32 13.4587 105.16 13.428 104.992C13.3712 104.636 13.4444 104.271 13.6342 103.965C13.8239 103.658 14.1176 103.43 14.4617 103.321C16.4251 102.609 18.3018 101.677 20.0564 100.544L20.1292 100.497L72.3523 65.4508L158.58 115.319Z" fill="white"/>
<path d="M72.3668 65.884L157.907 115.337L147.715 122.184L146.04 123.309L99.008 154.864C98.5778 155.127 98.0816 155.262 97.5775 155.253C97.1796 155.264 96.7859 155.171 96.4345 154.984L21.84 111.868C21.2321 111.533 20.6206 111.18 19.98 110.794C17.1226 109.043 15.248 107.365 14.0577 105.509L13.9922 105.403L13.9121 105.276C13.8411 105.166 13.7939 105.042 13.7738 104.912C13.7351 104.642 13.7946 104.366 13.9415 104.136C14.0884 103.905 14.313 103.735 14.5746 103.656C16.5629 102.936 18.4631 101.992 20.2384 100.843L20.2821 100.817H20.3039L72.3559 65.8985M72.3559 65.469L20.1292 100.504L20.0564 100.551C18.3018 101.684 16.4251 102.616 14.4617 103.329C14.1176 103.437 13.8239 103.665 13.6342 103.972C13.4444 104.279 13.3712 104.643 13.428 104.999C13.4587 105.167 13.5231 105.327 13.6172 105.469L13.7592 105.702C14.9349 107.547 16.7658 109.247 19.8016 111.104C20.384 111.468 21.0064 111.832 21.6762 112.196L96.238 155.301C96.6447 155.519 97.1013 155.628 97.5629 155.617C98.1386 155.626 98.7047 155.47 99.1936 155.166L146.212 123.614L147.89 122.49L158.58 115.319L72.3523 65.4508L72.3559 65.469Z" fill="#E0E0E0"/>
<path opacity="0.1" d="M147.478 115.002C146.721 115.515 146.725 116.291 147.478 116.735C147.911 116.951 148.392 117.053 148.876 117.031C149.359 117.009 149.829 116.865 150.241 116.611C151.002 116.098 151.002 115.322 150.241 114.878C149.808 114.661 149.327 114.559 148.844 114.581C148.36 114.602 147.89 114.747 147.478 115.002Z" fill="black"/>
<path d="M156.327 109.003C155.271 108.396 153.954 108.556 152.611 109.451C150.536 110.853 148.745 113.845 147.973 116.928C148.303 117.027 148.65 117.056 148.992 117.015C149.72 114.267 151.289 111.631 153.128 110.39C153.625 110.03 154.209 109.81 154.82 109.753C155.168 109.733 155.515 109.814 155.817 109.986C156.709 110.503 157.226 111.832 157.233 113.626C157.237 113.923 157.222 114.219 157.19 114.514L158.162 115.079C158.226 114.581 158.259 114.08 158.26 113.579C158.249 111.384 157.546 109.71 156.327 109.003Z" fill="#263238"/>
<path d="M158.071 115.657C158.061 115.746 158.045 115.833 158.023 115.919L157.845 115.81L158.071 115.657Z" fill="#263238"/>
<path opacity="0.1" d="M139.135 110.176C138.378 110.689 138.382 111.464 139.135 111.908C139.568 112.124 140.049 112.226 140.533 112.204C141.016 112.183 141.486 112.038 141.898 111.784C142.659 111.271 142.659 110.496 141.898 110.052C141.465 109.836 140.984 109.733 140.501 109.755C140.017 109.777 139.547 109.921 139.135 110.176Z" fill="black"/>
<path d="M147.984 104.18C146.929 103.569 145.611 103.729 144.271 104.625C142.193 106.026 140.402 109.018 139.63 112.105C139.961 112.2 140.307 112.23 140.65 112.192C141.378 109.44 142.95 106.805 144.785 105.564C145.282 105.204 145.866 104.984 146.477 104.927C146.826 104.907 147.172 104.989 147.475 105.163C148.366 105.676 148.883 107.005 148.891 108.803C148.894 109.1 148.88 109.397 148.847 109.691L149.819 110.256C149.887 109.759 149.92 109.258 149.917 108.756C149.906 106.554 149.204 104.887 147.984 104.18Z" fill="#263238"/>
<path opacity="0.1" d="M130.789 105.353C130.035 105.862 130.035 106.637 130.789 107.085C131.222 107.299 131.703 107.4 132.186 107.379C132.669 107.357 133.139 107.214 133.552 106.961C134.316 106.448 134.312 105.673 133.552 105.229C133.119 105.013 132.638 104.91 132.154 104.932C131.671 104.954 131.201 105.098 130.789 105.353Z" fill="black"/>
<path d="M139.638 99.372C138.586 98.7605 137.268 98.9243 135.925 99.8161C133.846 101.218 132.059 104.21 131.284 107.296C131.615 107.391 131.961 107.421 132.303 107.384C133.031 104.632 134.604 101.996 136.442 100.755C136.937 100.395 137.521 100.175 138.131 100.118C138.48 100.101 138.827 100.183 139.132 100.355C140.02 100.868 140.54 102.197 140.548 103.995C140.55 104.293 140.534 104.591 140.5 104.887L141.476 105.447C141.541 104.951 141.573 104.451 141.571 103.951C141.56 101.727 140.868 100.06 139.638 99.372Z" fill="#263238"/>
<path opacity="0.1" d="M122.446 100.526C121.689 101.039 121.693 101.814 122.446 102.259C122.879 102.474 123.36 102.576 123.843 102.555C124.326 102.534 124.796 102.391 125.209 102.138C125.97 101.622 125.97 100.846 125.209 100.402C124.776 100.187 124.295 100.085 123.811 100.107C123.328 100.129 122.858 100.273 122.446 100.526Z" fill="black"/>
<path d="M131.295 94.5309C130.239 93.9193 128.922 94.0831 127.582 94.9786C125.504 96.3763 123.713 99.3684 122.941 102.455C123.272 102.55 123.618 102.58 123.96 102.542C124.67 99.7906 126.257 97.1553 128.099 95.914C128.594 95.5536 129.178 95.3335 129.788 95.277C130.137 95.2595 130.484 95.3415 130.789 95.5136C131.677 96.0269 132.194 97.3555 132.201 99.1536C132.205 99.4515 132.19 99.7493 132.157 100.045L133.133 100.606C133.197 100.11 133.228 99.6102 133.228 99.11C133.224 96.9041 132.514 95.237 131.295 94.5309Z" fill="#263238"/>
<path opacity="0.1" d="M114.103 95.7029C113.346 96.2161 113.35 96.9915 114.103 97.4355C114.536 97.6515 115.016 97.7534 115.499 97.7318C115.982 97.7101 116.451 97.5656 116.862 97.3118C117.627 96.7985 117.623 96.0232 116.862 95.5791C116.43 95.3629 115.949 95.2607 115.467 95.2824C114.984 95.3041 114.514 95.4488 114.103 95.7029Z" fill="black"/>
<path d="M122.952 89.7042C121.896 89.0927 120.579 89.2565 119.239 90.1519C117.161 91.5533 115.37 94.5417 114.598 97.6285C114.928 97.7275 115.275 97.7573 115.617 97.7158C116.327 94.9676 117.914 92.3323 119.752 91.091C120.25 90.731 120.834 90.5099 121.445 90.4504C121.793 90.4333 122.139 90.5153 122.442 90.687C123.334 91.2039 123.851 92.5325 123.858 94.327C123.862 94.6237 123.847 94.9203 123.815 95.2151L124.786 95.7757C124.852 95.2798 124.884 94.7799 124.881 94.2797C124.874 92.092 124.168 90.4104 122.952 89.7042Z" fill="#263238"/>
<path opacity="0.1" d="M105.757 90.8762C104.999 91.3894 105.003 92.1647 105.757 92.6088C106.189 92.8247 106.669 92.9267 107.152 92.905C107.635 92.8834 108.104 92.7388 108.516 92.4851C109.28 91.9718 109.276 91.1965 108.516 90.7524C108.083 90.5368 107.603 90.4351 107.12 90.4567C106.637 90.4784 106.168 90.6227 105.757 90.8762Z" fill="black"/>
<path d="M114.605 84.8775C113.55 84.2696 112.232 84.4334 110.893 85.3252C108.814 86.7266 107.016 89.7187 106.252 92.82C106.582 92.9154 106.929 92.945 107.271 92.9073C107.981 90.1555 109.568 87.5201 111.406 86.2789C111.903 85.9189 112.487 85.6989 113.098 85.6419C113.447 85.6236 113.793 85.7057 114.096 85.8785C114.988 86.3917 115.504 87.7203 115.512 89.5185C115.515 89.8151 115.501 90.1118 115.468 90.4066L116.44 90.9708C116.505 90.4748 116.538 89.9751 116.538 89.4748C116.527 87.2544 115.825 85.5836 114.605 84.8775Z" fill="#263238"/>
<path opacity="0.1" d="M97.4137 86.0532C96.6566 86.5665 96.6602 87.3418 97.4137 87.7859C97.8461 88.0018 98.3265 88.1038 98.8093 88.0821C99.2921 88.0605 99.7615 87.9159 100.173 87.6621C100.937 87.1489 100.934 86.3736 100.173 85.9295C99.7405 85.7132 99.2601 85.6111 98.7772 85.6327C98.2942 85.6544 97.8249 85.7991 97.4137 86.0532Z" fill="black"/>
<path d="M106.263 80.0545C105.207 79.4467 103.889 79.6068 102.546 80.5023C100.464 81.9 98.6804 84.8957 97.916 87.9788C98.2461 88.0779 98.5931 88.1076 98.9352 88.0662C99.6632 85.318 101.232 82.6826 103.07 81.4377C103.568 81.0802 104.152 80.8616 104.763 80.8044C105.111 80.785 105.457 80.8658 105.76 81.0373C106.652 81.5542 107.169 82.8828 107.176 84.6773C107.178 84.974 107.163 85.2705 107.132 85.5655L108.104 86.1261C108.169 85.63 108.202 85.1303 108.203 84.63C108.184 82.4315 107.482 80.7607 106.263 80.0545Z" fill="#263238"/>
<path opacity="0.1" d="M89.0672 81.2266C88.31 81.7398 88.3137 82.5151 89.0672 82.9592C89.5002 83.1751 89.9812 83.2771 90.4646 83.2554C90.948 83.2337 91.4179 83.0892 91.8299 82.8355C92.5907 82.3259 92.5907 81.5469 91.8299 81.1028C91.3967 80.8876 90.9158 80.786 90.4325 80.8077C89.9493 80.8293 89.4794 80.9735 89.0672 81.2266Z" fill="black"/>
<path d="M97.916 75.2315C96.8604 74.62 95.5463 74.7838 94.2032 75.6756C92.1247 77.077 90.3339 80.0691 89.5622 83.1558C89.893 83.2512 90.2392 83.2809 90.5814 83.2432C91.3094 80.4913 92.8782 77.856 94.7201 76.6147C95.2155 76.2542 95.799 76.0342 96.409 75.9777C96.7573 75.9594 97.1035 76.0415 97.4064 76.2143C98.2982 76.7276 98.8151 78.0562 98.8223 79.8543C98.826 80.151 98.8114 80.4476 98.7787 80.7425L99.7542 81.3067C99.8178 80.8105 99.8494 80.3108 99.8488 79.8106C99.8379 77.6048 99.1354 75.9377 97.916 75.2315Z" fill="#263238"/>
<path opacity="0.1" d="M80.7243 76.4035C79.9672 76.9131 79.9708 77.6885 80.7243 78.1362C81.1575 78.3514 81.6384 78.453 82.1217 78.4313C82.6049 78.4097 83.0748 78.2655 83.487 78.0124C84.2478 77.4992 84.2478 76.7239 83.487 76.2798C83.0541 76.0635 82.5731 75.9614 82.0896 75.9831C81.6061 76.0047 81.1362 76.1495 80.7243 76.4035Z" fill="black"/>
<path d="M89.5731 70.4049C88.5175 69.7934 87.1998 69.9572 85.8603 70.8526C83.7819 72.254 81.991 75.2424 81.2193 78.3292C81.5498 78.4263 81.8964 78.456 82.2385 78.4165C82.9483 75.6647 84.5354 73.0293 86.3736 71.7881C86.8714 71.4295 87.4555 71.2097 88.0662 71.1511C88.4144 71.1328 88.7606 71.2149 89.0635 71.3877C89.9553 71.9009 90.4722 73.2295 90.4795 75.0277C90.4831 75.3256 90.4685 75.6234 90.4358 75.9195L91.4077 76.48C91.4743 75.9842 91.5071 75.4843 91.506 74.984C91.495 72.7782 90.7925 71.111 89.5731 70.4049Z" fill="#263238"/>
<path opacity="0.1" d="M72.3778 71.5769C71.6206 72.0902 71.6243 72.8655 72.3778 73.3096C72.8108 73.5255 73.2918 73.6274 73.7752 73.6057C74.2586 73.5841 74.7285 73.4396 75.1405 73.1858C75.9049 72.6726 75.9013 71.8972 75.1405 71.4532C74.7073 71.2379 74.2264 71.1364 73.7431 71.158C73.2599 71.1797 72.79 71.3238 72.3778 71.5769Z" fill="black"/>
<path d="M81.2266 65.5819C80.1746 64.9703 78.857 65.1341 77.5138 66.0259C75.4354 67.4273 73.6481 70.4194 72.8728 73.5061C73.2036 73.6015 73.5498 73.6311 73.892 73.5935C74.62 70.8417 76.1925 68.2063 78.0307 66.9651C78.5261 66.6046 79.1096 66.3845 79.7196 66.3281C80.0691 66.309 80.4167 66.3912 80.7206 66.5647C81.6088 67.0779 82.1293 68.4065 82.1366 70.2047C82.1385 70.5013 82.1239 70.7978 82.0929 71.0928L83.0648 71.657C83.1302 71.1611 83.1618 70.6612 83.1594 70.161C83.1485 67.9551 82.446 66.288 81.2266 65.5819Z" fill="#263238"/>
<path d="M89.3511 146.328C89.1848 146.334 89.02 146.294 88.8758 146.211C88.7316 146.128 88.6137 146.005 88.5357 145.858C88.4119 145.624 88.3776 145.353 88.4392 145.095C88.5009 144.837 88.6542 144.61 88.8706 144.457L134.56 113.797C134.662 113.726 134.779 113.678 134.901 113.655C135.024 113.632 135.15 113.636 135.271 113.665C135.392 113.695 135.506 113.75 135.604 113.827C135.702 113.903 135.783 114 135.841 114.11C135.965 114.345 135.999 114.616 135.938 114.874C135.876 115.132 135.723 115.359 135.506 115.512L89.8206 146.182C89.6801 146.272 89.5179 146.323 89.3511 146.328Z" fill="#EBEBEB"/>
<path d="M83.7892 143.125C83.6228 143.131 83.4581 143.091 83.3139 143.007C83.1696 142.924 83.0518 142.802 82.9738 142.655C82.8503 142.42 82.8166 142.149 82.8789 141.891C82.9412 141.633 83.0953 141.406 83.3123 141.254L128.998 110.59C129.101 110.52 129.218 110.472 129.34 110.449C129.463 110.427 129.589 110.431 129.71 110.46C129.832 110.49 129.945 110.544 130.044 110.621C130.142 110.697 130.224 110.794 130.283 110.904C130.406 111.138 130.44 111.41 130.378 111.668C130.315 111.926 130.161 112.152 129.944 112.305L84.2587 142.968C84.1196 143.063 83.9571 143.117 83.7892 143.125Z" fill="#EBEBEB"/>
<path d="M78.2236 139.907C78.0574 139.913 77.893 139.871 77.7494 139.788C77.6057 139.704 77.4887 139.581 77.4119 139.434C77.2881 139.199 77.2538 138.928 77.3154 138.67C77.377 138.412 77.5303 138.186 77.7468 138.032L123.436 107.38C123.539 107.31 123.655 107.262 123.778 107.24C123.9 107.218 124.026 107.222 124.146 107.252C124.267 107.281 124.38 107.336 124.479 107.412C124.577 107.488 124.658 107.584 124.717 107.693C124.841 107.927 124.875 108.199 124.814 108.457C124.752 108.715 124.599 108.941 124.382 109.094L78.6932 139.747C78.5542 139.842 78.3918 139.898 78.2236 139.907Z" fill="#EBEBEB"/>
<path d="M72.6617 136.693C72.4951 136.698 72.3302 136.657 72.186 136.573C72.0418 136.49 71.9241 136.367 71.8463 136.22C71.7225 135.985 71.6882 135.714 71.7498 135.456C71.8114 135.198 71.9648 134.971 72.1812 134.818L117.87 104.159C117.973 104.087 118.089 104.038 118.212 104.015C118.335 103.992 118.461 103.995 118.582 104.025C118.703 104.054 118.817 104.11 118.915 104.187C119.013 104.264 119.094 104.361 119.152 104.472C119.276 104.706 119.31 104.977 119.248 105.235C119.187 105.493 119.033 105.72 118.817 105.873L73.1276 136.533C72.9901 136.628 72.8288 136.684 72.6617 136.693Z" fill="#EBEBEB"/>
<path d="M67.0961 133.472C66.9298 133.478 66.7651 133.437 66.6208 133.354C66.4766 133.271 66.3587 133.149 66.2808 133.002C66.1573 132.767 66.1236 132.495 66.1859 132.237C66.2482 131.98 66.4022 131.753 66.6193 131.601L112.309 100.941C112.411 100.87 112.528 100.822 112.651 100.8C112.774 100.777 112.9 100.781 113.021 100.811C113.142 100.84 113.256 100.895 113.354 100.971C113.453 101.048 113.535 101.144 113.593 101.254C113.717 101.489 113.751 101.76 113.688 102.018C113.626 102.276 113.472 102.503 113.255 102.655L67.5657 133.315C67.4265 133.409 67.2641 133.464 67.0961 133.472Z" fill="#EBEBEB"/>
<path d="M61.5342 130.257C61.3674 130.264 61.2022 130.223 61.0579 130.139C60.9135 130.055 60.796 129.932 60.7188 129.784C60.5954 129.549 60.5617 129.278 60.624 129.02C60.6863 128.762 60.8403 128.535 61.0574 128.383L106.743 97.723C106.846 97.6519 106.962 97.6034 107.085 97.5806C107.208 97.5578 107.334 97.5614 107.456 97.5909C107.577 97.6205 107.691 97.6755 107.79 97.7522C107.888 97.8289 107.969 97.9257 108.028 98.0361C108.152 98.2705 108.186 98.542 108.124 98.7998C108.063 99.0577 107.909 99.2843 107.693 99.4375L62.0038 130.097C61.8656 130.194 61.7028 130.25 61.5342 130.257Z" fill="#EBEBEB"/>
<path d="M55.9723 127.036C55.8057 127.042 55.6408 127 55.4966 126.917C55.3525 126.833 55.2347 126.71 55.1569 126.563C55.0331 126.328 54.9988 126.057 55.0604 125.799C55.1221 125.541 55.2754 125.315 55.4918 125.161L101.192 94.5053C101.294 94.4343 101.411 94.3858 101.533 94.363C101.656 94.3403 101.782 94.3438 101.903 94.3734C102.024 94.403 102.138 94.458 102.236 94.5347C102.334 94.6114 102.415 94.7081 102.473 94.8184C102.597 95.0528 102.631 95.3243 102.57 95.5821C102.508 95.84 102.355 96.0666 102.138 96.2198L56.4382 126.879C56.3 126.973 56.1389 127.027 55.9723 127.036Z" fill="#EBEBEB"/>
<path d="M50.4067 123.822C50.2404 123.828 50.0757 123.788 49.9314 123.705C49.7872 123.621 49.6693 123.499 49.5914 123.352C49.4679 123.117 49.4342 122.846 49.4965 122.588C49.5588 122.33 49.7128 122.104 49.9299 121.951L95.6192 91.2912C95.7214 91.2196 95.8378 91.1706 95.9605 91.1475C96.0832 91.1245 96.2094 91.1279 96.3307 91.1575C96.452 91.1871 96.5656 91.2423 96.6638 91.3194C96.7621 91.3964 96.8427 91.4935 96.9004 91.6043C97.0243 91.8387 97.0586 92.1102 96.9969 92.368C96.9353 92.6259 96.782 92.8525 96.5656 93.0057L50.8763 123.665C50.7369 123.759 50.5746 123.813 50.4067 123.822Z" fill="#EBEBEB"/>
<path d="M44.8448 120.604C44.6794 120.606 44.5167 120.562 44.3751 120.477C44.2336 120.391 44.1189 120.267 44.044 120.12C43.9206 119.885 43.8868 119.613 43.9491 119.355C44.0114 119.098 44.1655 118.871 44.3825 118.719L90.0536 88.088C90.1562 88.0163 90.2728 87.9673 90.3958 87.9442C90.5188 87.9211 90.6452 87.9245 90.7668 87.9541C90.8884 87.9837 91.0022 88.0389 91.1008 88.116C91.1994 88.193 91.2804 88.2902 91.3385 88.401C91.462 88.6359 91.4957 88.9076 91.4334 89.1655C91.3711 89.4234 91.217 89.6498 91 89.8024L45.3144 120.448C45.1752 120.542 45.0127 120.596 44.8448 120.604Z" fill="#EBEBEB"/>
<path d="M39.2792 117.39C39.1131 117.396 38.9487 117.354 38.805 117.271C38.6614 117.187 38.5444 117.064 38.4675 116.917C38.3437 116.682 38.3094 116.411 38.371 116.153C38.4326 115.895 38.586 115.669 38.8024 115.515L84.4917 84.8557C84.5941 84.7846 84.7105 84.7361 84.8331 84.7134C84.9557 84.6906 85.0817 84.6942 85.2028 84.7238C85.3239 84.7534 85.4373 84.8083 85.5356 84.885C85.6339 84.9617 85.7148 85.0584 85.773 85.1687C85.8968 85.4031 85.9311 85.6746 85.8694 85.9325C85.8078 86.1903 85.6545 86.417 85.4381 86.5701L39.7488 117.23C39.6099 117.325 39.4475 117.381 39.2792 117.39Z" fill="#EBEBEB"/>
<path d="M33.7173 114.176C33.5507 114.181 33.3859 114.14 33.2417 114.056C33.0975 113.973 32.9798 113.85 32.902 113.703C32.7782 113.468 32.7439 113.197 32.8055 112.939C32.8671 112.681 33.0204 112.454 33.2368 112.301L78.9298 81.6379C79.0322 81.5668 79.1486 81.5183 79.2712 81.4956C79.3937 81.4729 79.5198 81.4764 79.6409 81.506C79.762 81.5356 79.8754 81.5906 79.9737 81.6673C80.072 81.744 80.1529 81.8407 80.2111 81.9509C80.3349 82.1854 80.3692 82.4568 80.3075 82.7147C80.2459 82.9726 80.0926 83.1992 79.8762 83.3523L34.1833 114.016C34.0455 114.111 33.8843 114.166 33.7173 114.176Z" fill="#EBEBEB"/>
<path d="M28.1518 110.955C27.9854 110.961 27.8207 110.92 27.6765 110.837C27.5322 110.754 27.4144 110.632 27.3364 110.485C27.213 110.25 27.1792 109.978 27.2415 109.72C27.3038 109.463 27.4579 109.236 27.6749 109.084L73.3642 78.4238C73.4669 78.3527 73.5836 78.3042 73.7064 78.2814C73.8293 78.2586 73.9556 78.2622 74.077 78.2917C74.1984 78.3213 74.3121 78.3763 74.4107 78.453C74.5094 78.5297 74.5906 78.6265 74.6491 78.7369C74.7726 78.9717 74.8063 79.2435 74.744 79.5014C74.6817 79.7593 74.5276 79.9857 74.3106 80.1383L28.6213 110.798C28.4822 110.892 28.3197 110.947 28.1518 110.955Z" fill="#EBEBEB"/>
<path d="M22.5898 107.744C22.4236 107.75 22.259 107.709 22.1149 107.626C21.9707 107.543 21.8528 107.421 21.7745 107.274C21.651 107.04 21.6173 106.768 21.6796 106.51C21.7419 106.252 21.896 106.026 22.113 105.873L67.7986 75.2096C67.9016 75.1391 68.0182 75.091 68.1409 75.0686C68.2637 75.0461 68.3898 75.0498 68.511 75.0793C68.6322 75.1089 68.7459 75.1636 68.8445 75.24C68.9432 75.3164 69.0246 75.4127 69.0836 75.5227C69.207 75.7575 69.2407 76.0293 69.1784 76.2872C69.1161 76.5451 68.9621 76.7715 68.745 76.9241L23.0594 107.584C22.9207 107.679 22.7581 107.735 22.5898 107.744Z" fill="#EBEBEB"/>
<path d="M95.004 149.557C94.8374 149.562 94.6726 149.521 94.5284 149.437C94.3842 149.353 94.2665 149.231 94.1887 149.083C94.0648 148.849 94.0305 148.578 94.0922 148.32C94.1538 148.062 94.3071 147.835 94.5235 147.682L142.848 115.195C142.951 115.124 143.068 115.075 143.19 115.053C143.313 115.03 143.44 115.033 143.561 115.063C143.682 115.093 143.796 115.148 143.895 115.224C143.993 115.301 144.075 115.398 144.133 115.508C144.258 115.743 144.292 116.016 144.23 116.275C144.167 116.533 144.013 116.76 143.795 116.913L95.4699 149.397C95.3318 149.491 95.1709 149.546 95.004 149.557Z" fill="#FF0000"/>
<path d="M99.8052 130.039C99.736 129.839 99.6341 129.635 99.4885 129.675C99.4449 129.697 99.4084 129.731 99.3833 129.773C99.3582 129.815 99.3454 129.863 99.3465 129.912C99.3473 129.976 99.3596 130.04 99.3829 130.101C99.4266 130.246 99.5176 130.323 99.5649 130.465C100.104 132.245 98.3382 132.809 97.4064 132.875C94.7638 133.071 92.1684 131.881 89.7405 130.585C86.2571 128.729 82.7882 126.687 79.1409 125.489C76.076 124.488 71.344 123.494 69.5822 128.128C69.5495 128.223 69.6587 128.394 69.706 128.288C71.617 123.993 75.9886 124.881 79.0025 125.878C82.6862 127.098 86.1843 129.173 89.7078 131.044C92.0629 132.292 94.5381 133.38 97.0933 133.315C98.2618 133.289 100.617 132.612 99.8889 130.29C99.867 130.239 99.8379 130.141 99.8052 130.039Z" fill="#263238"/>
<path d="M114.296 75.4099C112.651 72.4396 110.711 69.1673 108.669 64.3734C106.627 59.5795 104.89 59.5395 100.297 57.8942C96.4855 56.5328 86.1006 52.1612 81.9546 50.3958C76.6184 48.1208 75.1442 47.8478 70.5978 42.7008C65.651 37.0843 49.0417 18.6477 49.0417 18.6477L27.9297 57.7231C34.9804 61.7781 40.8808 65.156 45.1724 67.8969C48.9216 70.2847 51.2184 72.3523 53.3151 79.7305C54.742 84.7392 54.9094 86.9123 58.8297 91.3785C61.8691 94.8511 62.7572 95.8339 66.2771 99.6887L80.08 93.912C79.6427 93.2135 79.3712 92.424 79.2865 91.6042C79.17 88.6449 83.3451 89.1072 85.2561 89.3074C89.7296 89.7806 104.097 96.136 104.097 96.136L112.585 89.4275C113.961 87.9715 115.308 86.1988 113.899 82.1475C114.846 81.0737 115.941 78.3838 114.296 75.4099Z" fill="#FFA8A7"/>
<path d="M103.798 64.1477C103.42 63.6775 102.966 63.2739 102.455 62.9538C102.178 62.7645 101.905 62.5898 101.629 62.3969C101.311 62.1693 100.978 61.9637 100.631 61.7817C100.566 61.7526 100.577 61.8618 100.602 61.8909C101.531 62.8228 102.786 63.347 103.54 64.4644C103.841 64.9357 104.103 65.4312 104.322 65.9459C104.621 66.5902 104.927 67.2235 105.251 67.8569C105.276 67.9042 105.309 67.8569 105.302 67.8169C104.963 66.5465 104.588 65.2252 103.798 64.1477Z" fill="#F28F8F"/>
<path d="M113.932 82.1767C114.172 81.8869 114.376 81.5691 114.54 81.2303C113.568 79.1956 111.264 75.5628 109.418 71.0383C110.696 74.6419 111.788 76.4401 113.932 82.1767Z" fill="#F28F8F"/>
<path d="M106.874 64.0422C106.834 63.7556 106.761 63.4747 106.656 63.205C106.476 62.7143 106.207 62.2613 105.862 61.8691C105.45 61.4593 104.966 61.1275 104.435 60.89C103.872 60.5837 103.271 60.3525 102.648 60.202C102.648 60.202 102.648 60.2239 102.648 60.2311C103.172 60.5296 103.715 60.799 104.239 61.0975C104.739 61.3435 105.191 61.6791 105.571 62.0875C106.219 62.8556 106.459 63.8711 106.889 64.7593C106.914 64.8103 106.969 64.7993 106.969 64.7593C106.958 64.518 106.927 64.278 106.874 64.0422Z" fill="#F28F8F"/>
<path d="M113.677 88.1172C113.517 85.995 112.41 84.6264 111.257 81.9874C109.801 78.675 106.59 72.3487 105.509 68.6395C105.873 71.9701 108.097 83.4907 109.717 91.7171L112.6 89.4385C113.001 89.0339 113.362 88.5914 113.677 88.1172Z" fill="#F28F8F"/>
<path d="M79.7924 93.4788C79.6291 93.0512 79.4294 92.6384 79.1955 92.2449C78.988 91.8445 78.806 91.4295 78.6276 91.0145C78.2927 90.2406 78.0093 89.4454 77.7795 88.634C77.549 87.8088 77.4134 86.9601 77.3755 86.1042C77.3585 85.6867 77.367 85.2685 77.401 84.852C77.4192 84.6336 77.4483 84.4152 77.481 84.1968C77.5065 84.033 77.5538 83.851 77.5648 83.6872C77.5757 83.5234 77.5648 83.4361 77.5866 83.3232C77.5866 83.2504 77.4556 83.0757 77.401 83.1922C77.3033 83.3803 77.2217 83.5763 77.1571 83.7782C77.1064 83.9616 77.0651 84.1475 77.0333 84.3351C76.9704 84.7022 76.9327 85.0731 76.9205 85.4453C76.9009 86.1414 76.9509 86.8377 77.0697 87.5238C77.3112 88.8831 77.7645 90.1961 78.4129 91.4149C78.5985 91.7789 78.7987 92.1102 78.9989 92.456C79.1984 92.847 79.4427 93.2134 79.7269 93.548C79.7815 93.5771 79.8034 93.5116 79.7924 93.4788Z" fill="#F28F8F"/>
<path d="M106.102 90.8362L97.4064 74.3979C97.4064 74.3979 88.5212 76.946 84.3024 79.2792C80.0836 81.6124 78.1144 89.6896 79.7342 93.5371L79.9053 93.5735C79.5598 92.9737 79.351 92.305 79.2938 91.6152C79.1773 88.6558 83.3524 89.1181 85.2634 89.3183C89.7369 89.7915 104.104 96.147 104.104 96.147L106.215 94.4762L106.102 90.8362Z" fill="#F28F8F"/>
<path d="M49.2159 42.369C54.0849 30.926 52.7836 19.4164 46.3092 16.6615C39.8348 13.9066 30.6392 20.9497 25.7701 32.3927C20.9011 43.8357 22.2024 55.3453 28.6768 58.1002C35.1512 60.8551 44.3468 53.812 49.2159 42.369Z" fill="#FFA8A7"/>
<path d="M99.2737 61.2249C104.315 63.4489 104.908 66.219 105.8 69.8044C106.692 73.3898 110.103 81.0265 111.439 84.4772C112.774 87.9279 113.069 88.8124 111.733 93.4862C110.398 98.16 106.612 107.318 106.612 107.318C106.612 107.318 95.2661 71.3987 94.5272 67.7041C93.7882 64.0095 94.2287 59.8963 99.2737 61.2249Z" fill="#FFA8A7"/>
<path d="M110.609 91.0838C110.603 91.0932 110.6 91.1038 110.6 91.1147C110.6 91.1256 110.603 91.1362 110.609 91.1456C110.769 91.1966 111.013 91.0874 111.173 91.0583C111.333 91.0292 111.581 90.9782 111.784 90.9491C111.988 90.92 112.185 90.9018 112.396 90.8908C112.421 90.7562 112.443 90.6251 112.465 90.5014C111.95 90.5616 111.444 90.6838 110.958 90.8654C110.821 90.8974 110.698 90.9742 110.609 91.0838ZM110.587 88.645C111.09 88.4553 111.61 88.3175 112.141 88.2336C112.28 88.2153 112.42 88.2044 112.56 88.2009C112.56 88.0626 112.527 87.9242 112.501 87.7896C112.349 87.7896 112.199 87.8114 112.046 87.8332C111.472 87.8982 110.917 88.0803 110.416 88.3683C110.252 88.452 110.434 88.6959 110.587 88.645ZM112.276 89.18C111.954 89.194 111.633 89.228 111.315 89.282C110.66 89.3763 110.028 89.591 109.451 89.9153C109.313 89.999 109.498 90.1847 109.619 90.1446C110.161 89.9367 110.718 89.77 111.286 89.646C111.559 89.5941 111.835 89.5601 112.112 89.544C112.254 89.544 112.41 89.544 112.563 89.544C112.563 89.4166 112.582 89.2965 112.585 89.18C112.476 89.18 112.378 89.18 112.276 89.18Z" fill="#F28F8F"/>
<path d="M107.311 83.6618C105.252 79.6325 103.458 75.4728 101.942 71.2094L97.4064 69.8043L95.9031 72.6945C99.1026 83.538 106.612 107.315 106.612 107.315C106.612 107.315 107.173 105.957 107.941 104.039C107.941 104.039 108.952 95.6374 109.397 91.8773C109.841 88.1172 108.77 86.4027 107.311 83.6618Z" fill="#F28F8F"/>
<path d="M90.9636 104.286C90.6833 104.097 90.403 103.922 90.1264 103.707C86.3736 100.948 82.3768 98.1053 80.08 93.912L66.248 99.6923C68.6056 102.287 71.1169 104.737 73.7682 107.031C76.0068 109.062 82.8136 111.85 87.2362 114.074C91.6588 116.298 93.5152 117.401 94.6291 116.775C95.9322 116.076 97.5302 108.749 90.9636 104.286Z" fill="#FFA8A7"/>
<path d="M75.0131 107.952C75.0604 107.791 75.1078 107.635 75.166 107.478C75.2875 107.153 75.4272 106.834 75.5846 106.525C75.7724 106.229 75.9309 105.916 76.0578 105.589C76.076 105.509 75.9668 105.374 75.8867 105.436C75.6 105.701 75.3675 106.018 75.2024 106.372C75.0068 106.729 74.84 107.102 74.7037 107.486C74.6782 107.555 74.66 107.628 74.6346 107.697L75.0131 107.952Z" fill="#F28F8F"/>
<path d="M76.4582 108.683C76.6046 108.138 76.8021 107.608 77.0479 107.1C77.2601 106.67 77.5202 106.266 77.8232 105.895C78.0342 105.631 78.2694 105.387 78.5257 105.167C78.7368 104.996 78.9589 104.843 79.1518 104.654C79.2028 104.603 79.13 104.468 79.0572 104.486C78.5199 104.655 78.0374 104.964 77.6594 105.382C77.2514 105.788 76.9044 106.252 76.6293 106.758C76.332 107.309 76.0999 107.893 75.9377 108.497L76.4291 108.781C76.44 108.763 76.44 108.723 76.4582 108.683Z" fill="#F28F8F"/>
<path d="M77.9724 108.563C78.1233 108.145 78.3046 107.739 78.5148 107.347C78.6052 107.179 78.7048 107.016 78.8133 106.86C78.9412 106.715 79.0412 106.549 79.1081 106.368C79.1081 106.288 79.0135 106.161 78.9298 106.204C78.5636 106.473 78.2667 106.825 78.0634 107.231C77.8344 107.611 77.6372 108.009 77.4738 108.421C77.3718 108.683 77.2808 108.949 77.1971 109.218L77.6703 109.469C77.765 109.164 77.8596 108.862 77.9724 108.563Z" fill="#F28F8F"/>
<path d="M85.3944 113.168C85.5905 111.78 86.2621 110.504 87.2945 109.557C87.2945 109.557 90.4649 110.885 91.819 112.105C93.1731 113.324 94.2178 116.014 93.3733 116.877C91.4332 116.884 88.816 114.973 85.3944 113.168Z" fill="#FFC4C3"/>
<path opacity="0.3" d="M85.3944 113.168C85.7948 113.379 86.1806 113.59 86.5592 113.801C86.9733 112.421 87.2178 110.996 87.2872 109.557C86.2575 110.505 85.5886 111.781 85.3944 113.168Z" fill="white"/>
<path d="M91.2257 82.0347C93.4461 85.6747 96.8604 92.2267 96.9004 93.0711C97.1261 97.8505 96.8531 102.845 96.8531 108.013C96.8531 113.182 96.8094 116.957 99.0772 120.389C101.13 123.483 104.901 124.335 105.436 120.954C105.902 118.06 106.193 112.17 106.612 107.325C107.031 102.481 108.141 95.4626 108.432 91.5424C108.723 87.6221 106.146 83.7746 104.41 78.7041C102.903 74.296 101.625 68.7268 99.2628 66.3645C96.9004 64.0021 87.9606 59.5759 84.7028 57.8578L91.2257 82.0347Z" fill="#FFA8A7"/>
<path d="M108.174 91.8445C107.894 91.8645 107.613 91.8645 107.333 91.8445C106.75 91.7857 106.173 91.681 105.607 91.5315C105.462 91.5024 105.498 91.7098 105.585 91.7572C106.157 92.0188 106.777 92.1612 107.405 92.1758C107.718 92.1994 108.032 92.1994 108.345 92.1758H108.374C108.374 92.0556 108.392 91.9428 108.399 91.83L108.174 91.8445Z" fill="#F28F8F"/>
<path d="M104.832 88.3319C104.734 88.3793 104.857 88.5503 104.945 88.5285C105.621 88.3482 106.327 88.3085 107.02 88.412C107.326 88.4665 107.627 88.5531 107.915 88.6705L108.181 88.7979C108.148 88.6413 108.112 88.4848 108.075 88.3283C107.765 88.2027 107.441 88.1123 107.111 88.0589C106.341 87.916 105.546 88.0113 104.832 88.3319Z" fill="#F28F8F"/>
<path d="M106.168 89.5986C105.616 89.5772 105.063 89.6236 104.523 89.7369C104.068 89.8388 103.401 89.9517 103.103 90.3484C103.103 90.3484 103.103 90.4103 103.121 90.4103C103.375 90.4028 103.626 90.3587 103.867 90.2793C104.129 90.2137 104.392 90.1555 104.657 90.1155C105.64 89.958 106.645 90.0176 107.602 90.2902C107.883 90.3724 108.158 90.4746 108.425 90.5959C108.425 90.4103 108.425 90.2319 108.392 90.0354C108.192 89.9626 107.988 89.8971 107.791 89.8425C107.262 89.6963 106.717 89.6144 106.168 89.5986Z" fill="#F28F8F"/>
<path d="M106.328 110.081C106.139 110.019 105.942 109.964 105.749 109.91C105.349 109.804 104.948 109.71 104.541 109.633C104.52 109.628 104.498 109.627 104.476 109.631C104.455 109.634 104.434 109.642 104.416 109.654C104.398 109.666 104.383 109.682 104.371 109.7C104.359 109.719 104.351 109.739 104.348 109.761C104.348 109.863 104.443 109.932 104.53 109.946C104.894 110.019 105.258 110.099 105.64 110.197L106.175 110.354L106.368 110.416L106.39 110.099L106.328 110.081Z" fill="#F28F8F"/>
<path d="M105.116 108.756C105.528 108.878 105.931 109.027 106.324 109.2L106.455 109.258L106.488 108.829L106.445 108.807C106.026 108.639 105.596 108.498 105.16 108.385C104.727 108.272 104.288 108.187 103.846 108.13C103.379 108.04 102.9 108.031 102.43 108.104C102.342 108.104 102.382 108.261 102.455 108.275C102.917 108.366 103.391 108.392 103.853 108.472C104.279 108.543 104.701 108.638 105.116 108.756Z" fill="#F28F8F"/>
<path d="M104.435 107.609C105.01 107.738 105.578 107.898 106.135 108.09C106.27 108.137 106.401 108.192 106.532 108.246C106.532 108.126 106.554 108.01 106.561 107.882L106.284 107.777C105.676 107.58 105.051 107.439 104.417 107.355C104.253 107.344 104.315 107.584 104.435 107.609Z" fill="#F28F8F"/>
<path d="M106.102 114.059C103.969 112.003 101.734 112.734 101.734 112.734C101.469 114.474 101.371 116.236 101.44 117.994C101.592 120.455 103.216 121.66 104.457 121.871C105.698 122.082 105.862 119.654 106.102 114.059Z" fill="#FFC4C3"/>
<path opacity="0.3" d="M106.062 114.966C106.062 114.675 106.088 114.372 106.102 114.059C103.969 112.003 101.734 112.734 101.734 112.734C102.16 113.492 104.519 114.82 106.062 114.966Z" fill="white"/>
<path d="M100.464 67.0161C99.4776 65.6693 97.9997 64.8757 96.5437 64.1332C95.721 63.7349 94.9235 63.2863 94.1559 62.79C94.1122 62.7573 94.1013 62.8519 94.1268 62.8774C95.2806 63.8966 96.6748 64.6064 97.9342 65.4581C99.3152 66.3235 100.385 67.606 100.988 69.12C101.374 69.9972 101.694 70.8999 102.044 71.7917C102.069 71.8609 102.124 71.8172 102.117 71.759C101.92 70.1064 101.454 68.3738 100.464 67.0161Z" fill="#F28F8F"/>
<path d="M75.4936 24.1332C75.5575 24.2307 75.6089 24.3359 75.6465 24.4462L75.4499 23.7437C75.4388 23.7018 75.4254 23.6605 75.4099 23.62V23.5945C75.3967 23.5518 75.3797 23.5103 75.3589 23.4707L75.3298 23.4125C75.3298 23.3797 75.297 23.3506 75.2752 23.3178L75.1733 23.1722C75.1332 23.1249 75.0932 23.0776 75.0495 23.0339C74.6981 22.7054 74.2661 22.4756 73.7974 22.3678C71.93 21.8764 69.3129 22.5862 67.9515 23.9548C67.7692 24.1317 67.6102 24.3311 67.4783 24.5482C67.4518 24.5848 67.4287 24.6238 67.4092 24.6646C67.3922 24.6848 67.3797 24.7084 67.3728 24.7338C67.3466 24.779 67.3246 24.8265 67.3072 24.8758C67.2354 25.0327 67.1876 25.1996 67.1653 25.3708C67.1343 25.5711 67.1454 25.7757 67.198 25.9714L67.4201 26.7758C67.3828 26.642 67.3656 26.5034 67.3691 26.3645C67.7277 26.8639 68.2623 27.2086 68.8652 27.3291C70.7325 27.8242 73.3533 27.1144 74.7146 25.7457C75.1715 25.328 75.4504 24.7507 75.4936 24.1332Z" fill="#FF0000"/>
<path d="M101.108 118.522L92.8418 120.779L92.6234 119.971L67.3982 26.7868C67.361 26.6529 67.3438 26.5143 67.3473 26.3754C67.3983 25.7507 67.6876 25.1694 68.1554 24.752C69.5167 23.3834 72.1339 22.6772 74.0012 23.1722C74.4699 23.2762 74.9022 23.5037 75.2534 23.8311C75.3448 23.9222 75.4254 24.0236 75.4936 24.1332C75.5575 24.2307 75.6089 24.3359 75.6465 24.4462C75.6465 24.4462 75.6465 24.4863 75.6647 24.5008V24.5227L101.108 118.522Z" fill="#F0F0F0"/>
<path d="M99.4375 117.164C101.305 117.656 101.716 119.17 100.351 120.539C98.9862 121.907 96.3726 122.617 94.5053 122.122C92.638 121.627 92.2303 120.116 93.5917 118.748C94.953 117.379 97.5702 116.669 99.4375 117.164Z" fill="#FF0000"/>
<path d="M100.883 124.947C100.883 124.91 100.883 124.87 100.883 124.834L101.137 119.094V119.028C101.139 118.993 101.139 118.958 101.137 118.922V118.864C101.119 118.1 100.53 117.448 99.423 117.157C97.5557 116.662 94.9385 117.372 93.5771 118.74C92.7872 119.534 92.598 120.378 92.9365 121.041L92.9656 121.081C93.0009 121.147 93.041 121.21 93.0857 121.27L93.1112 121.31L96.2198 126.13C96.4233 126.409 96.7249 126.602 97.0642 126.668C97.653 126.792 98.2625 126.774 98.8432 126.617C99.4238 126.461 99.9593 126.169 100.406 125.766C100.653 125.555 100.821 125.266 100.883 124.947Z" fill="#E0E0E0"/>
<path d="M83.123 62.6407C83.1247 62.6373 83.1255 62.6336 83.1255 62.6298C83.1255 62.626 83.1247 62.6223 83.123 62.6189L83.0939 62.5061C83.038 62.3958 82.9573 62.2999 82.8582 62.226C82.759 62.1522 82.6441 62.1022 82.5224 62.0802C82.1552 62.005 81.7754 62.0172 81.4137 62.1159C81.052 62.2145 80.7186 62.3968 80.4404 62.648C80.3486 62.7254 80.2757 62.8226 80.2271 62.9323C80.1785 63.0421 80.1556 63.1615 80.1601 63.2814L80.2001 63.427L96.2161 122.562L99.5977 123.458L83.123 62.6407Z" fill="#455A64"/>
<path d="M94.9094 117.809L96.1979 122.57L99.5795 123.465L97.8323 117.015C96.813 117.071 95.8169 117.341 94.9094 117.809Z" fill="#37474F"/>
<path d="M100.537 127.451L100.766 122.246C100.771 122.2 100.771 122.153 100.766 122.107C100.766 121.554 100.344 121.088 99.5504 120.877C98.8221 120.726 98.0684 120.749 97.3506 120.944C96.6328 121.139 95.971 121.5 95.419 121.998C94.862 122.559 94.7237 123.148 94.9603 123.618V123.647L95.0404 123.771L97.916 128.19C98.0313 128.347 98.2016 128.455 98.3928 128.492C98.7245 128.562 99.0679 128.552 99.3951 128.463C99.7222 128.375 100.024 128.21 100.275 127.982C100.353 127.917 100.417 127.836 100.462 127.744C100.507 127.653 100.533 127.553 100.537 127.451Z" fill="#FF0000"/>
<path opacity="0.1" d="M100.537 127.451L100.766 122.246C100.771 122.2 100.771 122.153 100.766 122.107C100.766 121.554 100.344 121.088 99.5504 120.877C98.8221 120.726 98.0684 120.749 97.3506 120.944C96.6328 121.139 95.971 121.5 95.419 121.998C94.862 122.559 94.7237 123.148 94.9603 123.618V123.647L95.0404 123.771L97.916 128.19C98.0313 128.347 98.2016 128.455 98.3928 128.492C98.7245 128.562 99.0679 128.552 99.3951 128.463C99.7222 128.375 100.024 128.21 100.275 127.982C100.353 127.917 100.417 127.836 100.462 127.744C100.507 127.653 100.533 127.553 100.537 127.451Z" fill="black"/>
<path d="M100.286 127.986C100.033 128.213 99.7309 128.376 99.4034 128.464C99.0758 128.552 98.7321 128.562 98.4001 128.492C98.2098 128.455 98.0406 128.347 97.9269 128.19L96.4709 125.955C96.2416 125.591 96.3253 125.143 96.7585 124.703C97.1612 124.34 97.6434 124.078 98.1664 123.936C98.6893 123.794 99.2382 123.778 99.7688 123.887C100.337 124.037 100.642 124.372 100.65 124.768V124.874L100.537 127.451C100.533 127.552 100.509 127.652 100.466 127.744C100.422 127.836 100.361 127.918 100.286 127.986Z" fill="#FF0000"/>
<path opacity="0.1" d="M99.9908 126.898C100.591 127.058 100.719 127.542 100.286 127.99C100.035 128.217 99.7331 128.382 99.406 128.471C99.0789 128.559 98.7354 128.569 98.4038 128.499C97.8032 128.343 97.6758 127.855 98.1089 127.407C98.3603 127.18 98.6618 127.016 98.9888 126.927C99.3158 126.839 99.6592 126.828 99.9908 126.898Z" fill="black"/>
<path d="M75.3735 33.9976C75.329 33.871 75.2504 33.759 75.1464 33.6743C75.0423 33.5895 74.9168 33.5351 74.7838 33.5171C74.4188 33.4405 74.0409 33.4513 73.6809 33.5487C73.3209 33.6461 72.9891 33.8274 72.7126 34.0777C72.6062 34.1634 72.5253 34.2764 72.4784 34.4047C72.4316 34.533 72.4207 34.6717 72.4469 34.8057L80.1564 63.2923C80.152 63.1724 80.1749 63.0531 80.2235 62.9433C80.272 62.8336 80.345 62.7363 80.4367 62.659C80.715 62.4078 81.0484 62.2255 81.4101 62.1269C81.7717 62.0282 82.1515 62.016 82.5188 62.0911C82.6405 62.1132 82.7554 62.1631 82.8545 62.237C82.9537 62.3109 83.0344 62.4067 83.0903 62.517L75.3735 33.9976Z" fill="#FAFAFA"/>
<path d="M75.1078 34.711C74.8308 34.9605 74.499 35.1413 74.1391 35.2387C73.7793 35.3361 73.4016 35.3474 73.0366 35.2716C72.9053 35.2527 72.7816 35.1983 72.679 35.1143C72.5764 35.0302 72.4986 34.9197 72.4542 34.7947C72.4246 34.6613 72.4332 34.5224 72.4789 34.3936C72.5246 34.2649 72.6056 34.1516 72.7126 34.0667C72.9891 33.8164 73.3209 33.6352 73.6809 33.5377C74.0409 33.4403 74.4188 33.4295 74.7838 33.5062C74.9168 33.5241 75.0423 33.5785 75.1464 33.6633C75.2505 33.7481 75.329 33.86 75.3735 33.9866C75.3986 34.1201 75.3871 34.2579 75.3404 34.3854C75.2936 34.5129 75.2132 34.6254 75.1078 34.711Z" fill="#F5F5F5"/>
<path d="M76.6402 29.7679V29.7315C76.6419 29.7133 76.6419 29.695 76.6402 29.6769L75.2898 24.701C75.281 24.6616 75.2701 24.6227 75.257 24.5845V24.5554C75.0823 24.0458 74.5836 23.6272 73.801 23.4161C72.8738 23.2235 71.9143 23.2524 71.0004 23.5003C70.0865 23.7482 69.2439 24.2082 68.5412 24.843C67.9224 25.4618 67.7113 26.1133 67.8642 26.663L69.2328 31.7044C69.2312 31.7128 69.2312 31.7214 69.2328 31.7298V31.759C69.3966 32.2904 69.8989 32.7236 70.7179 32.942C71.6451 33.1339 72.6045 33.1048 73.5183 32.8569C74.4321 32.609 75.2747 32.1493 75.9777 31.5151C76.5383 30.94 76.7567 30.3066 76.6402 29.7679Z" fill="#FF0000"/>
<path opacity="0.05" d="M76.6402 29.7679V29.7315C76.6419 29.7133 76.6419 29.695 76.6402 29.6769L75.2898 24.701C75.281 24.6616 75.2701 24.6227 75.257 24.5845V24.5554C75.0823 24.0458 74.5836 23.6272 73.801 23.4161C72.8738 23.2235 71.9143 23.2524 71.0004 23.5003C70.0865 23.7482 69.2439 24.2082 68.5412 24.843C67.9224 25.4618 67.7113 26.1133 67.8642 26.663L69.2328 31.7044C69.2312 31.7128 69.2312 31.7214 69.2328 31.7298V31.759C69.3966 32.2904 69.8989 32.7236 70.7179 32.942C71.6451 33.1339 72.6045 33.1048 73.5183 32.8569C74.4321 32.609 75.2747 32.1493 75.9777 31.5151C76.5383 30.94 76.7567 30.3066 76.6402 29.7679Z" fill="black"/>
<path opacity="0.1" d="M75.126 28.4793C76.8076 28.9234 77.1753 30.2993 75.9486 31.5187C75.2455 32.1529 74.403 32.6126 73.4892 32.8605C72.5753 33.1084 71.616 33.1376 70.6888 32.9456C69.0071 32.4979 68.6395 31.1256 69.8662 29.9062C70.5689 29.2715 71.4114 28.8115 72.3254 28.5635C73.2393 28.3156 74.1988 28.2867 75.126 28.4793Z" fill="black"/>
<path d="M100.409 129.613L99.8816 127.524C99.8624 127.462 99.8263 127.408 99.7774 127.366C99.7284 127.324 99.6687 127.297 99.605 127.287C99.4349 127.253 99.2591 127.258 99.0916 127.304C98.9241 127.349 98.7696 127.433 98.6404 127.549C98.5933 127.589 98.5572 127.641 98.5356 127.699C98.5139 127.757 98.5074 127.819 98.5166 127.881L99.0371 129.97C99.0711 130.084 99.1337 130.188 99.2191 130.272C99.3279 130.381 99.4692 130.451 99.6215 130.473C99.7738 130.494 99.929 130.466 100.064 130.391C100.198 130.317 100.305 130.201 100.368 130.061C100.431 129.92 100.447 129.763 100.413 129.613H100.409Z" fill="#455A64"/>
<path d="M100.424 129.748C100.429 129.707 100.429 129.665 100.424 129.624C100.395 129.575 100.356 129.534 100.31 129.502C100.263 129.47 100.21 129.448 100.155 129.438C99.9846 129.402 99.8083 129.407 99.6406 129.453C99.4728 129.498 99.3183 129.583 99.19 129.701C99.1424 129.739 99.1061 129.789 99.0849 129.846C99.0638 129.903 99.0586 129.965 99.0699 130.024C99.0678 130.038 99.0678 130.051 99.0699 130.065C99.0689 130.077 99.0689 130.089 99.0699 130.101C99.1012 130.173 99.147 130.237 99.2046 130.29C99.34 130.419 99.5198 130.491 99.7069 130.491C99.8939 130.491 100.074 130.419 100.209 130.29C100.283 130.221 100.34 130.137 100.378 130.043C100.415 129.949 100.431 129.849 100.424 129.748Z" fill="#263238"/>
<path d="M99.2737 61.2248C104.315 63.4488 104.908 66.2188 105.8 69.8042C106.692 73.3896 110.103 81.0264 111.439 84.4771C112.774 87.9278 113.069 88.8123 111.733 93.4861C110.398 98.1598 106.612 107.318 106.612 107.318C106.612 107.318 95.2661 71.3986 94.5272 67.704C93.7882 64.0094 94.2287 59.8962 99.2737 61.2248Z" fill="#FFA8A7"/>
<path d="M110.609 91.0838C110.603 91.0932 110.6 91.1038 110.6 91.1147C110.6 91.1256 110.603 91.1362 110.609 91.1456C110.769 91.1966 111.013 91.0874 111.173 91.0583C111.333 91.0292 111.581 90.9782 111.784 90.9491C111.988 90.92 112.185 90.9018 112.396 90.8908C112.421 90.7562 112.443 90.6251 112.465 90.5014C111.95 90.5616 111.444 90.6838 110.958 90.8654C110.821 90.8974 110.698 90.9742 110.609 91.0838ZM110.587 88.645C111.09 88.4553 111.61 88.3175 112.141 88.2336C112.28 88.2153 112.42 88.2044 112.56 88.2009C112.56 88.0626 112.527 87.9242 112.501 87.7896C112.349 87.7896 112.199 87.8114 112.046 87.8332C111.472 87.8982 110.917 88.0803 110.416 88.3683C110.252 88.452 110.434 88.6959 110.587 88.645ZM112.276 89.18C111.954 89.194 111.633 89.228 111.315 89.282C110.66 89.3763 110.028 89.591 109.451 89.9153C109.313 89.999 109.498 90.1847 109.619 90.1446C110.161 89.9367 110.718 89.77 111.286 89.646C111.559 89.5941 111.835 89.5601 112.112 89.544C112.254 89.544 112.41 89.544 112.563 89.544C112.563 89.4166 112.582 89.2965 112.585 89.18C112.476 89.18 112.378 89.18 112.276 89.18Z" fill="#F28F8F"/>
<path d="M107.311 83.6618C105.252 79.6325 103.458 75.4728 101.942 71.2094L97.4064 69.8043L95.9031 72.6945C99.1026 83.538 106.612 107.315 106.612 107.315C106.612 107.315 107.173 105.957 107.941 104.039C107.941 104.039 108.952 95.6374 109.397 91.8773C109.841 88.1172 108.77 86.4027 107.311 83.6618Z" fill="#F28F8F"/>
<path d="M90.9636 104.286C90.6833 104.097 90.403 103.922 90.1264 103.707C86.3736 100.948 82.3768 98.1053 80.08 93.912L66.248 99.6923C68.6056 102.287 71.1169 104.737 73.7682 107.031C76.0068 109.062 82.8136 111.85 87.2362 114.074C91.6588 116.298 93.5152 117.401 94.6291 116.775C95.9322 116.076 97.5302 108.749 90.9636 104.286Z" fill="#FFA8A7"/>
<path d="M75.0131 107.951C75.0604 107.791 75.1078 107.635 75.166 107.478C75.2875 107.153 75.4272 106.834 75.5846 106.525C75.7724 106.229 75.9309 105.916 76.0578 105.589C76.076 105.509 75.9668 105.374 75.8867 105.436C75.6 105.701 75.3675 106.018 75.2024 106.372C75.0068 106.729 74.84 107.102 74.7037 107.486C74.6782 107.555 74.66 107.627 74.6346 107.697L75.0131 107.951Z" fill="#F28F8F"/>
<path d="M76.4582 108.683C76.6046 108.138 76.8021 107.608 77.0479 107.1C77.2601 106.67 77.5202 106.266 77.8232 105.895C78.0342 105.631 78.2694 105.387 78.5257 105.167C78.7368 104.996 78.9589 104.843 79.1518 104.654C79.2028 104.603 79.13 104.468 79.0572 104.486C78.5199 104.655 78.0374 104.964 77.6594 105.382C77.2514 105.788 76.9044 106.252 76.6293 106.758C76.332 107.309 76.0999 107.893 75.9377 108.497L76.4291 108.781C76.44 108.763 76.44 108.723 76.4582 108.683Z" fill="#F28F8F"/>
<path d="M77.9725 108.563C78.1233 108.145 78.3046 107.739 78.5148 107.347C78.6052 107.179 78.7048 107.016 78.8133 106.86C78.9412 106.715 79.0412 106.549 79.1081 106.368C79.1081 106.288 79.0135 106.161 78.9298 106.204C78.5636 106.473 78.2667 106.825 78.0635 107.231C77.8344 107.611 77.6372 108.009 77.4738 108.421C77.3718 108.683 77.2808 108.949 77.1971 109.218L77.6703 109.469C77.765 109.164 77.8596 108.862 77.9725 108.563Z" fill="#F28F8F"/>
<path d="M85.3944 113.168C85.5905 111.78 86.2621 110.504 87.2945 109.557C87.2945 109.557 90.4649 110.885 91.819 112.105C93.1731 113.324 94.2178 116.014 93.3733 116.877C91.4332 116.884 88.816 114.973 85.3944 113.168Z" fill="#FFC4C3"/>
<path opacity="0.3" d="M85.3944 113.168C85.7948 113.379 86.1806 113.59 86.5592 113.801C86.9733 112.421 87.2178 110.996 87.2872 109.557C86.2575 110.505 85.5886 111.781 85.3944 113.168Z" fill="white"/>
<path d="M91.2257 82.0347C93.4461 85.6747 96.8604 92.2267 96.9004 93.0711C97.1261 97.8505 96.8531 102.845 96.8531 108.013C96.8531 113.182 96.8094 116.957 99.0772 120.389C101.13 123.483 104.901 124.335 105.436 120.954C105.902 118.06 106.193 112.17 106.612 107.325C107.031 102.481 108.141 95.4626 108.432 91.5424C108.723 87.6221 106.146 83.7746 104.41 78.7041C102.903 74.296 101.625 68.7268 99.2628 66.3645C96.9004 64.0021 87.9606 59.5759 84.7028 57.8578L91.2257 82.0347Z" fill="#FFA8A7"/>
<path d="M108.174 91.8445C107.894 91.8645 107.613 91.8645 107.333 91.8445C106.75 91.7857 106.173 91.681 105.607 91.5315C105.462 91.5024 105.498 91.7098 105.585 91.7572C106.157 92.0188 106.777 92.1612 107.405 92.1758C107.718 92.1994 108.032 92.1994 108.345 92.1758H108.374C108.374 92.0556 108.392 91.9428 108.399 91.83L108.174 91.8445Z" fill="#F28F8F"/>
<path d="M104.832 88.3318C104.734 88.3791 104.857 88.5502 104.945 88.5284C105.621 88.3481 106.327 88.3084 107.02 88.4119C107.326 88.4663 107.627 88.553 107.915 88.6703L108.181 88.7977C108.148 88.6412 108.112 88.4847 108.075 88.3282C107.765 88.2025 107.441 88.1122 107.111 88.0588C106.341 87.9159 105.546 88.0111 104.832 88.3318Z" fill="#F28F8F"/>
<path d="M106.168 89.5986C105.616 89.5772 105.063 89.6236 104.523 89.7369C104.068 89.8388 103.401 89.9517 103.103 90.3484C103.103 90.3484 103.103 90.4103 103.121 90.4103C103.375 90.4028 103.626 90.3587 103.867 90.2793C104.129 90.2137 104.392 90.1555 104.657 90.1155C105.64 89.958 106.645 90.0176 107.602 90.2902C107.883 90.3724 108.158 90.4746 108.425 90.5959C108.425 90.4103 108.425 90.2319 108.392 90.0354C108.192 89.9626 107.988 89.8971 107.791 89.8425C107.262 89.6963 106.717 89.6144 106.168 89.5986Z" fill="#F28F8F"/>
<path d="M106.328 110.081C106.139 110.019 105.942 109.964 105.749 109.91C105.349 109.804 104.948 109.71 104.541 109.633C104.52 109.628 104.498 109.627 104.476 109.631C104.455 109.634 104.434 109.642 104.416 109.654C104.398 109.666 104.383 109.682 104.371 109.7C104.359 109.719 104.351 109.739 104.348 109.761C104.348 109.863 104.443 109.932 104.53 109.946C104.894 110.019 105.258 110.099 105.64 110.197L106.175 110.354L106.368 110.416L106.39 110.099L106.328 110.081Z" fill="#F28F8F"/>
<path d="M105.116 108.756C105.528 108.878 105.931 109.027 106.324 109.2L106.455 109.258L106.488 108.829L106.445 108.807C106.026 108.639 105.596 108.498 105.16 108.385C104.727 108.272 104.288 108.187 103.846 108.13C103.379 108.04 102.9 108.031 102.43 108.104C102.342 108.104 102.382 108.261 102.455 108.275C102.917 108.366 103.391 108.392 103.853 108.472C104.279 108.543 104.701 108.638 105.116 108.756Z" fill="#F28F8F"/>
<path d="M104.435 107.609C105.01 107.738 105.578 107.898 106.135 108.09C106.27 108.137 106.401 108.192 106.532 108.246C106.532 108.126 106.554 108.01 106.561 107.882L106.284 107.777C105.676 107.58 105.051 107.439 104.417 107.354C104.253 107.344 104.315 107.584 104.435 107.609Z" fill="#F28F8F"/>
<path d="M106.102 114.059C103.969 112.003 101.734 112.734 101.734 112.734C101.469 114.474 101.371 116.236 101.44 117.994C101.592 120.455 103.216 121.66 104.457 121.871C105.698 122.082 105.862 119.654 106.102 114.059Z" fill="#FFC4C3"/>
<path opacity="0.3" d="M106.062 114.966C106.062 114.675 106.088 114.372 106.102 114.059C103.969 112.003 101.734 112.734 101.734 112.734C102.16 113.492 104.519 114.82 106.062 114.966Z" fill="white"/>
<path d="M100.464 67.0161C99.4776 65.6693 97.9997 64.8757 96.5437 64.1332C95.721 63.7349 94.9235 63.2863 94.1559 62.79C94.1122 62.7573 94.1013 62.8519 94.1268 62.8774C95.2807 63.8966 96.6748 64.6064 97.9342 65.4581C99.3152 66.3235 100.385 67.606 100.988 69.12C101.374 69.9972 101.694 70.8999 102.044 71.7917C102.069 71.8609 102.124 71.8172 102.117 71.759C101.92 70.1064 101.454 68.3738 100.464 67.0161Z" fill="#F28F8F"/>
<path d="M107.744 38.2201C107.744 26.4847 121.023 16.9734 137.403 16.9734C153.783 16.9734 167.076 26.4811 167.076 38.2201C167.076 49.9591 153.794 59.4704 137.414 59.4704C136.426 59.4704 135.455 59.4352 134.502 59.3648C131.262 65.4545 125.766 66.4992 121.47 66.0151C122.991 65.3027 124.25 64.1316 125.071 62.6665C125.892 61.2013 126.233 59.5159 126.046 57.847C115.293 54.6474 107.744 47.0653 107.744 38.2201Z" fill="white"/>
<path d="M121.416 66.3172C121.349 66.3099 121.286 66.2806 121.237 66.2338C121.188 66.1871 121.157 66.1255 121.146 66.0587C121.136 65.9916 121.147 65.9228 121.18 65.8629C121.212 65.803 121.263 65.7554 121.325 65.7275C122.753 65.0561 123.941 63.9637 124.729 62.5973C125.518 61.2308 125.869 59.6556 125.737 58.0835C114.613 54.7019 107.435 46.9233 107.435 38.22C107.435 26.3354 120.881 16.6639 137.403 16.6639C153.925 16.6639 167.374 26.3318 167.374 38.22C167.374 50.1083 153.928 59.7797 137.403 59.7797C136.507 59.7797 135.583 59.747 134.662 59.6887C131.601 65.2725 126.741 66.4264 123.254 66.4264C122.64 66.4245 122.026 66.388 121.416 66.3172ZM134.52 59.0372C135.495 59.1063 136.471 59.1427 137.432 59.1427C153.615 59.1427 166.781 49.7479 166.781 38.2018C166.781 26.6557 153.615 17.2645 137.432 17.2645C121.248 17.2645 108.053 26.6703 108.053 38.22C108.053 46.6939 115.144 54.2833 126.119 57.5521C126.177 57.5698 126.229 57.6045 126.268 57.6518C126.307 57.6991 126.331 57.7569 126.337 57.8178C126.501 59.3693 126.231 60.9359 125.557 62.3432C124.884 63.7506 123.833 64.9435 122.522 65.7894C125.915 65.9459 131.091 65.0869 134.21 59.2374C134.237 59.1879 134.276 59.1465 134.324 59.1177C134.372 59.0888 134.427 59.0736 134.483 59.0736L134.52 59.0372Z" fill="#E0E0E0"/>
<path d="M144.508 52.416L145.673 52.5725L145.589 53.2532H141.694L141.782 52.5725L142.917 52.4014L142.291 49.999H138.953L138.113 52.4014L139.394 52.5725L139.306 53.2532H135.954L136.038 52.5725L137.104 52.4014L140.38 43.3779L141.945 43.2068L144.508 52.416ZM142.066 49.14L140.868 44.5172H140.824L139.23 49.14H142.066Z" fill="#E0E0E0"/>
<path d="M123.989 44.408L124.16 39.5086L123.476 39.352L123.52 38.988H124.666L124.786 39.0718L124.695 41.5069L124.499 43.2359H124.557L124.83 42.2204C125.096 41.2194 125.431 40.7862 126.093 40.7862C126.854 40.7862 127.185 41.3795 127.185 42.3514C127.185 43.8838 126.439 44.721 125.402 44.721C124.913 44.7232 124.431 44.6163 123.989 44.408ZM124.903 43.276L124.659 44.1204C124.886 44.2306 125.135 44.289 125.387 44.2915C126.071 44.2915 126.515 43.5162 126.515 42.4278C126.515 42.0165 126.515 41.3358 125.991 41.3358C125.416 41.3395 125.271 42.0311 124.903 43.2905V43.276Z" fill="#E0E0E0"/>
<path d="M118.937 32.2832C118.942 32.3474 118.933 32.4118 118.911 32.4723C118.889 32.5328 118.855 32.588 118.81 32.6344C118.765 32.6807 118.711 32.7171 118.652 32.7413C118.592 32.7655 118.528 32.7768 118.464 32.7746C118.361 32.7736 118.261 32.7423 118.176 32.6847C118.092 32.627 118.026 32.5456 117.987 32.4506L118.14 32.2686C118.427 31.9447 118.14 31.759 117.776 31.759C117.099 31.759 116.709 32.3778 116.709 33.4953C116.709 34.1942 116.975 34.7548 117.572 34.7548C117.768 34.734 117.958 34.6736 118.13 34.5772C118.302 34.4809 118.453 34.3506 118.573 34.1942L118.842 34.4745C118.685 34.7088 118.476 34.9035 118.231 35.0431C117.986 35.1827 117.712 35.2635 117.43 35.2789C116.476 35.2789 115.974 34.5509 115.974 33.5208C115.974 32.2541 116.666 31.3368 117.794 31.3368C118.442 31.3259 118.937 31.668 118.937 32.2832Z" fill="#E0E0E0"/>
<path d="M141.494 29.0473C141.833 29.7753 141.294 30.3322 140.788 30.7326L140.14 31.2567C140.388 31.6863 140.868 32.1012 141.443 31.8464C141.765 31.6661 142.004 31.3669 142.109 31.0129L142.451 31.1548C142.395 31.4117 142.281 31.6525 142.118 31.8592C141.956 32.0659 141.749 32.2333 141.512 32.3487C140.65 32.7455 139.874 32.2796 139.452 31.3623C138.924 30.2121 139.183 29.0873 140.144 28.6469C140.802 28.3375 141.257 28.534 141.494 29.0473ZM140.26 29.0473C139.707 29.3057 139.598 29.9864 139.954 30.8673L140.548 30.3831C140.963 30.0483 141.108 29.768 140.912 29.3348C140.788 29.08 140.566 28.898 140.26 29.04V29.0473Z" fill="#E0E0E0"/>
<path d="M138.153 36.3163L137.716 37.3719L139.292 37.9252L138.997 38.6131L137.468 38.078L136.012 41.7399C135.477 43.0721 134.611 44.3825 133.715 44.9358C133.547 45.061 133.352 45.1449 133.145 45.1809C132.938 45.217 132.726 45.2041 132.525 45.1433C132.059 44.9795 131.841 44.641 131.943 44.277C132.051 43.9873 132.252 43.7416 132.514 43.5781L132.94 43.9639C133.282 44.277 133.65 44.266 133.927 43.7091C134.105 43.3451 134.24 43.003 134.429 42.537L136.333 37.6776L135.35 37.3136L135.652 36.7167L136.609 36.9496L136.864 36.4C137.465 34.944 138.64 34.1214 140.122 34.6455C140.85 34.9003 141.658 35.5628 141.319 36.5238C141.293 36.62 141.246 36.7094 141.182 36.7857C141.118 36.8619 141.037 36.9233 140.947 36.9656C140.857 37.0078 140.758 37.0299 140.658 37.0303C140.559 37.0307 140.46 37.0094 140.369 36.9678C140.245 36.9264 140.132 36.8574 140.038 36.766C139.944 36.6746 139.872 36.5632 139.827 36.44L140.056 36.1561C140.42 35.7048 140.358 35.3772 139.849 35.1988C139.077 34.944 138.498 35.4864 138.153 36.3163Z" fill="#E0E0E0"/>
<path d="M150.696 37.3755L150.117 38.1327C149.211 39.3047 148.545 39.7925 147.569 39.3848C146.514 38.9444 146.477 37.7978 146.969 36.6221C147.733 34.7766 149.153 33.8921 150.558 34.4672C150.99 34.6467 151.384 34.9046 151.722 35.2279L152.203 35.1369L152.458 35.359L150.532 39.5486C149.826 41.0847 148.628 42.3551 146.674 41.547C145.982 41.2594 145.272 40.6879 145.582 39.9672C145.609 39.8736 145.656 39.7868 145.719 39.7122C145.782 39.6375 145.86 39.5768 145.947 39.5337C146.035 39.4906 146.13 39.4661 146.228 39.4618C146.325 39.4575 146.423 39.4734 146.514 39.5086C146.62 39.5524 146.716 39.6187 146.794 39.7028C146.873 39.787 146.932 39.8871 146.969 39.9963L146.761 40.2475C146.423 40.6115 146.499 40.9027 147.041 41.1284C148.068 41.5543 149.007 40.7971 149.793 39.3084L150.783 37.4301L150.696 37.3755ZM150.518 36.8295L151.34 35.7703C151.064 35.4886 150.737 35.2625 150.376 35.1042C149.451 34.7183 148.454 35.5301 147.868 36.9242C147.693 37.3391 147.234 38.4457 147.995 38.7442C148.756 39.0427 149.389 38.2637 150.507 36.8295H150.518Z" fill="#E0E0E0"/>
<path d="M117.135 43.145C116.875 43.2706 116.637 43.4392 116.433 43.6436L115.97 43.0358C116.356 42.5554 116.857 42.1798 117.426 41.9438C118.22 41.6416 118.828 41.9438 119.148 43.0358L120.448 47.32C120.56 47.684 120.681 47.8915 120.979 47.7787C121.245 47.6389 121.462 47.4219 121.601 47.1562L122.151 47.6258C121.848 48.2357 121.339 48.7182 120.713 48.9872C119.76 49.3512 119.286 48.918 119.039 48.1026L117.688 43.5526C117.59 43.2032 117.445 43.0285 117.135 43.145ZM116.502 38.6932C116.69 38.626 116.893 38.6157 117.087 38.6635C117.281 38.7114 117.457 38.8153 117.592 38.9623C117.727 39.1093 117.815 39.2928 117.847 39.49C117.878 39.6872 117.851 39.8892 117.768 40.0709C117.685 40.2525 117.55 40.4057 117.381 40.5113C117.212 40.6169 117.015 40.6702 116.815 40.6646C116.616 40.659 116.422 40.5947 116.259 40.4797C116.096 40.3647 115.97 40.2042 115.898 40.0182C115.844 39.8921 115.817 39.7563 115.819 39.6193C115.821 39.4823 115.851 39.3472 115.908 39.2226C115.965 39.0979 116.047 38.9865 116.149 38.8953C116.251 38.8042 116.371 38.7354 116.502 38.6932Z" fill="#E0E0E0"/>
<path d="M136.667 26.9688C136.103 26.9688 135.939 26.6376 135.979 26.1862L136.216 23.4926C136.271 22.8229 136.158 22.6154 135.852 22.6154C135.488 22.6154 135.332 22.8811 135.037 23.7074L133.945 26.8232H133.169L133.319 22.892C133.319 22.6299 133.264 22.528 133.064 22.528C132.87 22.5528 132.682 22.6094 132.507 22.6955L132.347 22.2259C132.684 22.0442 133.056 21.9374 133.439 21.9129C133.977 21.9129 134.167 22.2441 134.098 22.8775L133.861 25.4H133.93L134.618 23.3507C134.957 22.346 135.346 21.8947 136.074 21.8947C136.915 21.8947 137.141 22.4334 137.046 23.529L136.839 25.9642C136.809 26.2481 136.839 26.3719 137.057 26.3719C137.252 26.3526 137.436 26.2738 137.585 26.1462L137.803 26.4847C137.487 26.7645 137.088 26.9344 136.667 26.9688Z" fill="#E0E0E0"/>
<path d="M156.265 29.16C157.55 29.16 158.289 30.1137 158.289 31.5661C158.289 33.0184 157.637 34.3689 155.981 34.3689C154.696 34.3689 153.979 33.4152 153.979 31.9446C153.979 30.4741 154.602 29.16 156.265 29.16ZM157.375 31.5552C157.375 30.4923 157.073 29.7352 156.189 29.7352C155.144 29.7352 154.904 30.8272 154.904 31.9956C154.904 33.0876 155.268 33.8156 156.04 33.8156C157.084 33.7938 157.375 32.7309 157.375 31.5552Z" fill="#E0E0E0"/>
<path d="M124.422 23.4634C126.869 22.5789 129.275 23.5836 130.381 26.6412C131.593 29.9863 130.403 32.2468 127.942 33.448L127.982 33.5644C128.804 33.39 129.658 33.439 130.454 33.7064C131.71 34.0704 132.165 34.0704 132.125 33.4989L132.081 32.9711C132.969 32.6472 133.537 32.9384 133.741 33.5062C133.999 34.2342 133.563 34.8384 132.896 35.0787C132.168 35.3444 131.306 35.1952 130.239 34.8384C128.841 34.3434 128.328 34.1505 127.484 34.4744C126.872 34.6928 126.505 35.0423 125.882 35.6465L125.216 34.9622C125.558 34.5959 125.944 34.2742 126.366 34.0049L126.333 33.9175C124.015 34.1468 122.329 32.6836 121.576 30.6015C120.138 26.6302 122.009 24.3407 124.422 23.4634ZM127.4 32.8182C129.118 32.1958 129.868 30.2702 128.856 27.4529C127.935 24.9049 126.344 23.8347 124.554 24.4826C122.912 25.0796 121.929 26.6666 123.079 29.8589C124.004 32.396 125.511 33.5062 127.4 32.8182Z" fill="#E0E0E0"/>
<path d="M149.535 46.7958C149.384 46.8155 149.238 46.8597 149.102 46.9268L148.978 46.5628C149.239 46.4241 149.527 46.3422 149.822 46.3226C150.241 46.3226 150.383 46.5774 150.339 47.0724L150.234 48.1171H150.281L150.678 47.1816C150.918 46.6065 151.104 46.3153 151.537 46.3153C151.608 46.3066 151.68 46.3129 151.748 46.334C151.816 46.355 151.879 46.3902 151.933 46.4373C151.986 46.4844 152.029 46.5423 152.059 46.6072C152.089 46.6722 152.104 46.7426 152.105 46.814C152.104 46.9233 152.071 47.0299 152.009 47.1201C151.948 47.2103 151.861 47.2799 151.759 47.32L151.588 47.1234C151.508 47.0215 151.449 46.9596 151.34 46.9596C151.231 46.9596 151.118 47.0797 150.882 47.6002C150.339 48.8233 150.234 49.0562 150.197 49.544L150.132 50.1482H149.604L149.75 47.087C149.742 46.8832 149.691 46.7958 149.535 46.7958Z" fill="#E0E0E0"/>
<path d="M143.904 23.8639C144.715 23.6746 145.087 24.0786 145.181 24.7848L145.72 28.6068C145.848 29.4586 145.982 29.7498 146.408 29.6515C146.834 29.5532 146.969 29.1018 147.089 27.8824L147.533 23.216L148.821 22.9175L149.892 28.494C149.961 28.858 150.077 28.9963 150.357 28.9308C150.613 28.8359 150.851 28.7007 151.064 28.5304L151.457 29.1382C151.038 29.5181 150.541 29.8014 150.001 29.9682C149.215 30.1502 148.814 29.7534 148.69 28.8434L148.195 25.2034H148.086L147.868 28.3047C147.755 29.7607 147.395 30.5578 146.332 30.8054C145.163 31.0747 144.665 30.3649 144.45 28.9016L143.937 25.3672C143.893 25.0032 143.791 24.7994 143.5 24.8649C143.247 24.9517 143.025 25.1113 142.863 25.3235L142.444 24.8467C142.821 24.3802 143.33 24.0378 143.904 23.8639Z" fill="#E0E0E0"/>
<path d="M130.738 49.2565C130.624 49.8929 130.466 50.5205 130.265 51.1348C130.075 51.7536 129.995 52.1613 130.534 52.2523C131.448 52.4051 132.241 50.8581 132.438 49.8681C132.521 49.4349 132.438 49.3148 132.212 49.1801L131.888 49.0017C131.91 48.4812 132.201 48.1682 132.656 48.2446C133.242 48.3429 133.413 48.8015 133.304 49.4531C133.057 50.9091 131.939 53.2715 130.232 52.9839C129.966 52.9519 129.724 52.8168 129.557 52.6078C129.39 52.3987 129.312 52.1324 129.34 51.8664C129.16 52.1355 128.904 52.3443 128.604 52.4657C128.304 52.5871 127.975 52.6154 127.658 52.5471C127.156 52.4634 126.384 52.1613 126.679 50.8254L127.225 48.3174C127.287 48.0226 127.127 47.9534 126.861 47.9789L126.526 48.0299L126.454 47.5093C126.841 47.3868 127.251 47.3483 127.655 47.3965C127.767 47.4036 127.876 47.4367 127.974 47.493C128.071 47.5494 128.154 47.6275 128.216 47.7213C128.278 47.8151 128.317 47.9221 128.331 48.0337C128.345 48.1453 128.333 48.2586 128.295 48.3647L127.764 50.7744C127.622 51.4005 127.618 51.7536 128.066 51.83C128.994 51.9865 129.464 50.738 129.711 49.2602C129.782 48.8446 129.828 48.4253 129.85 48.0044L130.851 48.059C130.852 48.4609 130.814 48.8619 130.738 49.2565Z" fill="#E0E0E0"/>
<path d="M157.026 42.3659L159.614 39.4758L158.722 39.0717L158.901 38.5731L161.529 39.1591L161.328 39.6978H160.415L157.139 43.2177L156.567 45.3653L157.561 45.7293L157.375 46.2462L154.358 45.5764L154.54 45.0559L155.468 45.1141L156.069 42.9811L154.798 38.4093L154.016 38.0453L154.216 37.5175L157.128 38.1617L156.942 38.6932L156.007 38.6349L156.986 42.3405L157.026 42.3659Z" fill="#E0E0E0"/>
</svg>
