<svg width="22" height="25" viewBox="0 0 22 25" fill="none" xmlns="http://www.w3.org/2000/svg">
<path fill-rule="evenodd" clip-rule="evenodd" d="M10.6177 0C11.0975 0 11.4865 0.388938 11.4865 0.868725V14.2154L15.795 9.90694C16.1342 9.56768 16.6843 9.56768 17.0235 9.90694C17.3627 10.2462 17.3627 10.7962 17.0235 11.1355L11.232 16.927C10.8928 17.2663 10.3427 17.2663 10.0034 16.927L4.21195 11.1355C3.87268 10.7962 3.87268 10.2462 4.21195 9.90694C4.55121 9.56768 5.10125 9.56768 5.44052 9.90694L9.74901 14.2154V0.868725C9.74901 0.388938 10.1379 0 10.6177 0ZM0.96525 17.278C1.49834 17.278 1.9305 17.7102 1.9305 18.2432V21.139C1.9305 22.2083 2.79083 23.0695 3.85395 23.0695H17.3768C18.4419 23.0695 19.305 22.2062 19.305 21.139V18.2432C19.305 17.7102 19.7372 17.278 20.2703 17.278C20.8033 17.278 21.2355 17.7102 21.2355 18.2432V21.139C21.2355 23.2705 19.51 25 17.3768 25H3.85395C1.71851 25 0 23.2683 0 21.139V18.2432C0 17.7102 0.432162 17.278 0.96525 17.278Z" fill="white"/>
</svg>
